<?xml version="1.0" encoding="UTF-8"?>
<svg viewBox="0 0 155.96 113.47" xmlns="http://www.w3.org/2000/svg">
 <defs>.fil5 {fill:white}     .fil0 {fill:#211919}     .fil3 {fill:#312167}     .fil6 {fill:#C57532}     .fil2 {fill:#DE2119}     .fil4 {fill:#FFF700}     .fil1 {fill:white}</defs>
 <rect x="531.2" y="297.04" width="0" height="112.34" rx="0" ry="2.6335" fill="#fff" opacity=".515" stroke-width="3.199"/>
 <g transform="matrix(.73777 -.012933 .011556 .68067 133.4 12.577)">
  <g transform="matrix(.22421 0 0 .26037 399.35 222.21)">
   <path d="m-1804.2-292.76c-6.8018-0.99567-28.482-5.6271-48.178-10.292-32.954-7.8049-37.419-8.3931-55.96-7.3715-13.325 0.73425-20.916 0.34235-22.415-1.1572-1.2471-1.2471-2.3599-7.4152-2.4729-13.707-0.11304-6.2916-0.92468-13.758-1.8037-16.592-0.87915-2.8341-1.1271 3.2107-0.55115 13.433 1.3231 23.482-0.12964 25.334-16.331 20.822-6.0471-1.684-15.669-3.6478-21.382-4.364-13.604-1.7057-52.275 2.5128-67.936 7.411-16.384 5.1243-24.635 4.886-37.452-1.0813-11.954-5.5659-15.973-11.098-14.136-19.462 0.68506-3.1196 0.42407-7.8935-0.58032-10.608-1.7144-4.6342-2.0107-4.3742-4.8384 4.2471-4.6309 14.119-11.095 16.549-42.959 16.147-18.215-0.22974-31.037 0.78693-43.762 3.4699l-17.997 3.7949-6.6348-4.9052c-5.1709-3.823-10.522-5.2465-24.256-6.4521-39.187-3.4402-88.363-1.0456-114.05 5.5536-6.5593 1.6849-12.741 2.5596-13.738 1.9438-0.99658-0.61584-4.2905-7.6062-7.3198-15.534-3.0295-7.928-5.8118-14.414-6.1826-14.414-0.37109 0-2.3303 7.0228-4.3538 15.606-2.575 10.922-4.8975 16.258-7.7378 17.778-5.9185 3.1674-48.072 0.2124-70.278-4.9264-26.828-6.2087-32.101-5.9523-42.691 2.0769-15.396 11.672-23.832 14.717-40.857 14.744-11.99 0.019531-17.771-1.0654-25.764-4.8348-19.41-9.1534-25.153-21.454-22.931-49.116 0.75513-9.4012 2.2275-35.643 3.272-58.316 1.0444-22.672 3.072-52.816 4.5056-66.987 3.8462-38.017 3.3679-170.82-0.83496-231.88-4.522-65.694-6.3408-135.5-3.8667-148.4 1.6082-8.3868 3.7205-11.888 11.345-18.807 12.517-11.358 37.775-23.403 75.959-36.223 30.024-10.08 32.873-10.644 61.372-12.155 16.438-0.87122 35.773-2.2521 42.968-3.0685 9.9658-1.131 13.487-0.82764 14.786 1.2737 1.3535 2.1902 2.3308 2.2386 4.7454 0.23474 2.353-1.9528 9.7322-2.044 32.62-0.40314 16.269 1.1663 36.999 2.1399 46.068 2.1636 22.401 0.058472 32.289 1.8872 33.411 6.1794 0.62036 2.3718 2.4219 3.2035 5.6167 2.5928 2.5872-0.49457 13.878 0.96948 25.091 3.2534s27.558 4.793 36.322 5.5758c15.666 1.3994 15.967 1.3367 17.892-3.7256 1.0767-2.832 4.636-7.0563 7.9099-9.3874 5.6394-4.0157 8.8691-4.2457 61.462-4.3771 30.53-0.076355 62.929-0.91394 71.998-1.8614 28.606-2.9885 41.67 4.6636 29.705 17.4-4.9868 5.308-4.0491 9.3258 1.1663 4.9975 2.1155-1.7556 9.3867-2.4944 22.207-2.2561 12.234 0.22736 27.68-1.2498 43.124-4.1239 18.893-3.5161 26.638-4.0908 36.054-2.6752 10.946 1.6458 12.299 2.4321 15.515 9.017 1.9379 3.9676 3.568 5.7345 3.6224 3.9264 0.054443-1.8081 1.9187-4.9344 4.1428-6.9472 3.4023-3.079 6.179-3.431 17.5-2.2186l13.457 1.4411-1.0673-5.8301c-1.8445-10.074 1.2561-12.043 18.525-11.76 15.338 0.25134 15.798 0.42212 47.986 17.81 43.903 23.718 87.664 49.778 96.26 57.326 11.976 10.515 11.22 22.731-2.3027 37.201l-5.0581 5.4124 6.8392 1.2863c9.413 1.7701 30.873 12.231 34.814 16.97 6.6244 7.9667 8.6929 20.108 7.3933 43.399-1.9177 34.368-4.0944 43.878-14.39 62.869-10.595 19.544-21.606 49.871-30.326 83.526-9.5968 37.041-11.182 66.443-8.3384 154.64 1.3444 41.695 3.2577 85.548 4.252 97.45 2.9421 35.222 0.045166 49.207-11.022 53.209-7.8865 2.8518-77.731 2.8755-97.15 0.032959zm-361.73-603.56c0-1.1336-0.92749-2.0611-2.061-2.0611-1.1336 0-2.061 0.92749-2.061 2.0611s0.92749 2.0612 2.061 2.0612c1.1336 0 2.061-0.92755 2.061-2.0612z" fill="#deb887"/>
   <path d="m-1802.1-292.86c-5.6681-1.0688-27.667-6.1456-48.887-11.282-34.99-8.4692-40.458-9.2692-58.74-8.5938l-20.158 0.7447-1.4774-14.783c-0.81262-8.1309-2.8948-17.87-4.6271-21.642-3.0342-6.607-3.0974-6.254-1.7283 9.6307 1.8272 21.196 1.6574 27.606-0.7959 30.059-1.2775 1.2774-6.7253 0.77228-15.233-1.4124-18.323-4.7053-64.742-3.0008-85.377 3.1349-16.834 5.0054-27.424 5.4146-36.658 1.4164-12.922-5.595-14.785-8.1965-15.9-22.205-1.1733-14.749-3.6494-15.652-8.311-3.0324-4.7825 12.947-9.6072 14.417-48.378 14.739-20.002 0.16602-35.261 1.2283-38.78 2.6998-8.6304 3.6086-16.677 2.9515-22.795-1.8615-11.967-9.4134-101.06-9.8368-136.99-0.65112-7.2112 1.8434-13.775 2.5435-14.653 1.5626-0.87378-0.97717-4.219-9.1191-7.4336-18.093-3.2146-8.9741-6.3208-15.003-6.9026-13.397-0.58203 1.6055-2.9522 10.339-5.2671 19.408l-4.209 16.489-26.969-0.3571c-19.087-0.25269-32.237-1.6082-44.992-4.6376-27.285-6.4803-33.81-5.915-46.376 4.0179-13.808 10.914-18.508 12.488-37.416 12.53-17.441 0.03833-26.072-2.6766-36.522-11.488-10.667-8.9941-13.394-17.705-11.961-38.197 0.67407-9.6358 2.1182-31.896 3.2092-49.467 1.0911-17.571 3.5662-49.57 5.5002-71.109 5.2134-58.056 4.7451-167.02-1.0632-247.5-2.4609-34.101-4.6826-79.548-4.937-101-0.52051-43.852 0.15015-46.57 14.438-58.523 19.052-15.94 87.107-41.94 119.05-45.482 43.298-4.8015 72.037-6.4767 72.781-4.2426 0.96826 2.9051 6.5957 2.9746 6.5957 0.081482 0-1.4452 4.7139-1.7718 13.913-0.96393 7.6521 0.67206 29.217 2.0848 47.921 3.1394 18.705 1.0546 37.109 2.549 40.898 3.3208 6.436 1.3112 6.8013 1.8246 5.5515 7.8064-0.73584 3.5216-1.71 10.113-2.1648 14.647l-0.8267 8.2446 2.0356-8.4585c1.1199-4.6522 4.095-10.354 6.6118-12.67l4.5757-4.212 22.673 4.8821c13.211 2.8447 29.769 4.9067 39.677 4.9413 15.61 0.054321 17.004-0.27649 17.004-4.0338 0-2.4922 3.2268-6.2283 8.2505-9.5529 8.2317-5.4474 8.3142-5.4565 36.04-3.9872 16.302 0.86395 45.645 0.4483 70.986-1.0054 23.758-1.363 45.542-1.8897 48.407-1.1705 2.8655 0.71918 6.2474 3.246 7.5154 5.6152 1.939 3.6229 1.425 5.2264-3.2325 10.088-4.1716 4.3542-5.173 6.9296-4.0592 10.439l1.4785 4.6586 3.7559-4.9791c3.5465-4.7018 4.7664-4.944 21.909-4.3496 12.236 0.42432 25.209-0.74994 39.796-3.6021 22.559-4.4111 34.092-5.1552 45.265-2.9204 6.2947 1.2589 7.8643 3.1978 11.326 13.991 1.1012 3.4329 1.7602 3.0088 4.8053-3.0917l3.5291-7.0703 15.82 0.368 15.82 0.3679-1.0885-6.7079c-1.749-10.778 3.4746-14.41 18.471-12.842 10.546 1.1023 18.067 4.5508 56.797 26.043 55.251 30.66 84.308 48.815 89.571 55.966 6.0266 8.1877 3.3806 18.19-7.9365 30.001-5.042 5.2622-9.1675 9.8423-9.1675 10.178 0 0.33569 2.7048 0.069397 6.0106-0.5918 13.903-2.7806 40.936 11.893 46.516 25.25 4.0055 9.5862 4.0136 35.52 0.018188 58.11-2.2507 12.726-5.655 22.132-13.244 36.594-10.991 20.944-28.638 72.028-34.132 98.801-1.8607 9.069-4.1436 28.083-5.0731 42.253-1.9125 29.158 0.68469 147.22 4.1866 190.31 3.1925 39.285 0.77612 53.518-9.9441 58.57-6.5252 3.0755-78.077 3.1252-94.304 0.065491zm18.273-15.524c-1.7977-5.9344-2.4424-12.931-1.637-17.764 1.2471-7.4821 16.59-52.967 28.461-84.374 12.951-34.264 15.951-89.573 11.538-212.7-1.5033-41.944-2.8036-89.711-2.8893-106.15-0.14844-28.46 0.1145-30.464 5.5122-41.987 3.1174-6.6553 5.6682-12.408 5.6682-12.785 0-0.37646-4.51-0.15027-10.022 0.50256-5.76 0.68219-13.285 0.10986-17.696-1.3459-8.3464-2.7546-21.749-13.422-21.749-17.311 0-1.3315-3.2139-9.1276-7.1422-17.324-9.0516-18.888-39.736-51.681-53.196-56.853-5.3351-2.0499-10.03-5.6749-12.118-9.357-1.8748-3.3058-5.2114-6.9755-7.4149-8.1548-3.6705-1.9644-4.2918-0.96143-7.4124 11.968-1.8734 7.7615-3.4061 15.922-3.4061 18.135 0 5.7078-6.0122 10.366-14.428 11.179l-7.214 0.6968 0.7026-9.1916c0.70606-9.2358-1.6195-19.856-7.1919-32.842l-3.0012-6.9945-16.983 1.3055c-9.3408 0.71796-21.454 2.8288-26.919 4.6907-7.4608 2.5422-14.468 3.1268-28.135 2.3476-19.52-1.113-20.498-0.64508-20.498 9.8018 0 2.6675-0.91882 7.2665-2.0418 10.22-1.7749 4.6686-2.6052 5.0682-6.3579 3.0599-7.291-3.902-10.748-15.552-9.6567-32.549 0.7843-12.221 0.37207-15.362-2.1418-16.327-1.7123-0.65698-17.264 0.46832-34.559 2.5007-30.37 3.5689-63.494 3.5205-89.034-0.13013-6.5088-0.93036-10.213-0.32184-14.286 2.3467l-5.4985 3.6028 8.8953 3.315c9.7974 3.6512 19.746 14.526 10.647 11.638-4.0027-1.2704-6.3589 0.302-15.028 10.029-5.6548 6.3444-11.621 11.535-13.259 11.535-3.3113 0-6.998-8.0437-6.998-15.268 0-4.5235-0.99146-4.7839-27.31-7.1736-15.02-1.3639-30.468-3.0276-34.327-3.6971l-7.0173-1.2174 1.3511 9.8575c0.86475 6.3098 0.49829 10.885-1.0186 12.713-1.7883 2.1547-1.7615 4.8857 0.10938 11.13 2.407 8.0339 2.1965 8.7535-7.2376 24.73-5.3442 9.0504-10.728 16.154-11.963 15.786-4.8018-1.4312-12.202-20.792-13.86-36.26-4.2266-39.434-5.155-45.713-7.0383-47.596-2.1899-2.1899-49.813-8.2999-64.927-8.33l-9.3779-0.0187-2.5813 12.497c-3.0112 14.58-6.5977 15.594-14.059 3.9777-9.3435-14.546-10.253-15.373-16.375-14.873-39.065 3.1893-85.526 12.096-96.304 18.462-0.95435 0.56366 3.6834 3.2116 10.306 5.8843 6.6223 2.6727 14.24 7.3853 16.928 10.472 4.3032 4.9422 4.7664 7.1036 3.8755 18.09-1.2783 15.768-12.593 49.687-27.018 80.992-11.416 24.777-25.641 65.858-31.412 90.719-8.4099 36.23-11.514 67.13-12.623 125.65-1.4736 77.8 1.6523 102.5 20.03 158.26 11.072 33.596 14.368 48.823 14.404 66.544 0.028809 14.203 0.24634 14.9 4.0171 12.882 6.1096-3.2697 14.81-2.5886 35.664 2.7922 20.125 5.1924 54.572 8.7041 58.529 5.9664 2.845-1.9688 11.912-30.191 14.905-46.395 1.199-6.4901 3.6069-14.56 5.3511-17.933 1.7441-3.3727 3.2004-8.7291 3.2361-11.903l0.0652-5.7705 4.8477 5.5038c4.4995 5.109 9.45 24.136 9.45 36.323 0 2.4136 2.0786 6.325 4.6191 8.6918 3.5122 3.2722 4.6238 6.6255 4.6377 13.993 0.017334 9.1099 0.32642 9.6553 5.1711 9.1171 2.834-0.31482 34.163-1.4415 69.62-2.5037 65.018-1.9477 66.878-1.8223 78.781 5.3104 5.7068 3.4197 17.95 2.7419 27.968-1.5485 3.4902-1.4947 15.012-2.6205 27.291-2.6668l21.25-0.0801 8.6357-9.3691c4.7498-5.153 9.7058-11.182 11.013-13.397 2.2439-3.802 2.7166-3.842 8.4182-0.7132 5.9512 3.2659 6.073 3.2291 8.2292-2.4834 3.7188-9.8522 9.811-9.5303 36.934 1.9511 23.099 9.7782 45.692 17.14 70.429 22.948 6.0303 1.416 12.739 4.4795 14.908 6.8079 3.8265 4.1072 4.068 4.1213 8.1013 0.47113 4.9752-4.5024 5.2241-9.8867 1.0095-21.832-2.373-6.7261-2.6267-10.416-1.0305-14.995 1.1644-3.3402 2.1172-8.4039 2.1172-11.253 0-6.1289 8.8906-22.077 13.237-23.745 3.1738-1.2179 4.0155 0.513 6.3464 13.051 0.73767 3.9677 4.0312 13.822 7.3193 21.897 3.2878 8.0758 6.5758 19.769 7.3064 25.985l1.3284 11.302 22.938 1.2021c17.396 0.91156 29.413 3.0123 49.733 8.6932 43.489 12.159 55.396 15.193 60.086 15.313 4.3376 0.11096 4.3702-0.10297 1.47-9.6769zm-349.35-575.06c-2.564-3.2691-2.491-3.342 0.77808-0.7782 3.4334 2.6926 4.5252 4.3852 2.8289 4.3852-0.42798 0-2.0513-1.6232-3.6069-3.607zm410.04 576.73c0.51526-1.5458-0.25769-2.3188-1.8035-1.8035-1.4879 0.49597-3.111 2.1191-3.6071 3.607-0.51526 1.5458 0.25769 2.3188 1.8035 1.8035 1.488-0.49597 3.1111-2.1191 3.6071-3.6069zm-289.2-15.281c18.971-2.1906 21.495-2.8733 15.458-4.1821-12.228-2.6512-45.688-13.997-59.45-20.158-7.1909-3.2194-13.419-5.8534-13.84-5.8534-0.42139 0-1.7588 1.855-2.9722 4.1222-1.583 2.9577-1.5513 5.346 0.1123 8.4542 1.9587 3.6603 1.4414 5.2474-3.3379 10.236l-5.6558 5.9037 4.9558 1.8352c2.7258 1.0094 6.3474 2.4215 8.0478 3.1381 3.5867 1.5113 24.473 0.22308 56.681-3.4959zm-544.59-15.757c5.4211-0.004272 13.073 1.3362 17.004 2.9788 7.9102 3.305 7.8164 3.4531 5.1521-8.1393-1.0422-4.5345-4.4522-26.795-7.5779-49.467-5.2261-37.909-5.6477-45.861-5.2449-98.934 0.53564-70.596 3.5828-135.32 7.6658-162.83 5.8291-39.273 16.423-75.052 40.276-136.04 11.064-28.284 13.032-35.335 13.826-49.535 0.7605-13.594 0.32202-17.058-2.4502-19.359-4.7197-3.917-5.6836-2.0179-2.8228 5.5614 2.0625 5.4641 1.8098 8.0029-1.6191 16.277-5.1668 12.467-17.241 21.87-35.209 27.419-17.137 5.2932-30.564 5.3353-40.778 0.12787l-7.9446-4.0504 1.4272 30.33c0.78491 16.681 2.7427 46.801 4.3503 66.933 7.4343 93.088 5.7498 196.68-5.2202 320.97-2.2493 25.488-4.0898 50.749-4.0898 56.136v9.794l6.6987-4.0842c4.2046-2.5636 10.368-4.0872 16.555-4.092zm821.68 2.0534c5.0945 0 13.256 1.5252 18.138 3.3893 4.8811 1.8641 9.1699 3.0235 9.5308 2.5764 0.36084-0.44708-0.15381-9.6242-1.1438-20.394-0.98999-10.769-2.0016-63.174-2.2479-116.45l-0.448-96.873 5.618-25.973c7.2383-33.464 15.047-55.594 32.652-92.542 12.763-26.785 19.98-48.679 16.985-51.527-0.59717-0.56769-2.6075 1.2646-4.4674 4.0719-7.2583 10.955-16.07 19.408-23.975 23-9.0562 4.1141-29.798 5.1487-36.058 1.7986-8.1118-4.3414-11.3-27.347-5.3776-38.8 6.4155-12.406 20.074-16.817 21.481-6.9362 0.83276 5.8483 5.2644 4.8123 6.1827-1.4453 1.4161-9.6501-9.6698-14.506-24.19-10.596-16.898 4.5503-18.038 13.962-13.487 111.35 2.5983 55.598 3.141 90.562 2.0796 133.97-0.7898 32.308-1.2493 60.597-1.021 62.864 0.22827 2.2673 0.39905 12.934 0.37964 23.703-0.029541 16.308-1.6248 25.965-9.5449 57.78-5.2302 21.01-9.5094 39.381-9.5094 40.824 0 1.9501 1.1771 1.8 4.5809-0.58404 2.5194-1.7646 8.7492-3.2086 13.844-3.2086zm41.054-373.23c3.9573-3.6868 4.5193-6.055 3.9956-16.841-0.33508-6.9029-1.6077-12.88-2.828-13.282-1.2203-0.40228-4.6985 1.5667-7.7292 4.3756-4.5131 4.1826-5.5105 6.9154-5.5105 15.099 0 8.871 2.5211 14.939 6.2069 14.939 0.69324 0 3.3325-1.9306 5.8652-4.2902zm-50.804-105.46c-0.84106-15.16 4.3477-22.886 20.168-30.029 6.7341-3.0405 12.275-6.2122 12.312-7.0482 0.089111-1.987-9.083-7.7054-48.611-30.307-49.071-28.058-69.432-37.954-74.671-36.291-8.7145 2.7659-4.8458 9.2884 21.858 36.852 29.153 30.091 44.655 48.071 51.962 60.268 6.0713 10.134 12.472 17.373 15.365 17.376 1.3771 0.00177 1.9896-4.0982 1.6167-10.821zm29.454-1.5455c0.73376-1.1873-0.74097-1.8414-3.4854-1.5459-4.0637 0.43756-4.7566-0.42645-4.7529-5.9257 0.00293-4.3106-0.84839-6.1107-2.5764-5.4476-3.5889 1.3772-3.2257 7.8544 0.6582 11.738 3.6842 3.6842 8.2792 4.2185 10.156 1.1809zm-806.68-9.5095c5.7937-5.2433 4.7825-8.1336-5.2041-14.873-11.188-7.5506-13.602-5.8463-13.602 9.6033v11.194l7.4697-1.2122c4.1082-0.66669 9.2095-2.7868 11.336-4.7114zm0.8552-21.54c0.74463-1.2051-0.10913-3.8078-1.8975-5.7839-2.9648-3.2763-2.9482-3.8961 0.19067-7.035 4.8645-4.8646 1.4351-7.1225-5.189-3.4166-7.249 4.0555-8.2031 10.874-2.1184 15.136 5.519 3.8657 7.1794 4.0682 9.0142 1.0997zm356.62-51.201c-1.6904-2.7351-7.3362-3.0171-7.3362-0.36633 0 1.0409 0.59058 3.4316 1.3125 5.3126 1.1594 3.0212 1.6687 3.0639 4.3662 0.36639 1.6794-1.6796 2.4255-4.0702 1.6575-5.3127z" fill="#b7b8a7"/>
   <path d="m-1838.2-302.87c-45.302-11.468-49.77-12.226-69.042-11.721l-20.606 0.5399-1.4763-13.397c-1.5593-14.15-6.6326-29.946-10.357-32.248-2.1686-1.3402-1.043 23.897 1.6899 37.887 0.63257 3.2385-0.080811 7.3052-1.6531 9.425-2.2825 3.0771-3.7544 3.3527-8.4246 1.5771-19.915-7.5717-63.431-6.5678-91.092 2.1015-20.794 6.5171-37.922 4.3335-47.135-6.0091-2.7219-3.056-3.4507-5.9197-2.4849-9.7671 0.75146-2.9938 0.30884-8.6472-0.98364-12.563-3.2683-9.9036-8.3328-8.3354-11.711 3.6265-3.8281 13.553-7.4829 14.739-46.925 15.225-19.263 0.23718-35.391 1.3972-38.78 2.7894-8.6091 3.5362-16.685 2.902-22.634-1.7775-11.477-9.028-87.835-10.167-129.2-1.9267-10.75 2.1411-20.211 3.2263-21.026 2.4114-3.0186-3.0186-11.988-29.604-11.988-35.532 0-12.305-3.8889-5.6535-8.1616 13.96-2.4077 11.053-5.1521 21.487-6.0986 23.188-2.687 4.8279-49.556 3.5851-72.307-1.9173-26.497-6.4085-32.654-5.8588-45.167 4.0323-13.821 10.925-18.854 12.636-37.278 12.679-16.98 0.039551-24.269-2.0733-34.76-10.075-10.747-8.1974-15.519-21.075-13.918-37.559 18.835-193.89 19.303-243.05 4.2039-442.12-1.8115-23.881-2.7996-47.762-2.1958-53.069 2.898-25.477 19.533-39.356 69.566-58.037 34.381-12.837 54.019-17.565 86.835-20.908 17.3-1.7621 35.381-3.7531 40.179-4.4245 8.0122-1.1211 8.8909-0.78156 10.77 4.1608 2.5408 6.6832 6.2703 7.0218 6.2703 0.56952 0-4.7212 0.32056-4.796 17.004-3.9674 21.529 1.0692 25.142 2.2222 7.6262 2.4333-15.226 0.18353-18.447 2.2192-18.447 11.659 0 8.6484-4.4077 12.474-8.7136 7.5621-1.7358-1.9799-4.7422-6.7288-6.6809-10.553-3.4287-6.7633-3.7878-6.9172-13.131-5.6283-5.2832 0.72888-18.417 2.2706-29.186 3.426-25.56 2.7423-82.489 17.013-79.558 19.944 0.57471 0.57465 5.4456 1.867 10.824 2.8718 20.945 3.9129 31.634 12.621 31.634 25.77 0 14.164-12.45 50.7-30.842 90.509-9.8357 21.289-23.754 63.278-29.007 87.51-14.821 68.364-17.556 174.66-5.9587 231.58 2.3037 11.305 8.7183 34.594 14.255 51.754 11.788 36.536 15.415 55.088 13.81 70.639-1.1194 10.845-0.99414 11.217 3.3472 9.9486 12.215-3.5693 18.102-3.296 36.501 1.6948 21.499 5.8317 64.321 9.6353 66.619 5.9173 0.72046-1.1655 4.1663-13.524 7.6572-27.462 3.4912-13.939 7.7297-28.015 9.4187-31.282 5.73-11.08 10.314-3.5393 10.83 17.815 0.13403 5.5518 2.2532 15.605 4.7092 22.341l4.4653 12.247 8.4167-1.3586c4.6292-0.74731 37.578-1.8287 73.221-2.4032 63.936-1.0306 64.912-0.9837 72.883 3.4961 9.3254 5.2411 22.261 4.7409 35.045-1.3552 6.4998-3.0996 8.9861-3.2609 18.041-1.1708 12.935 2.9858 31.784 3.1453 37.074 0.31366 2.2822-1.2212 5.3215-6.8501 7.2139-13.359 1.7983-6.1868 4.2053-11.827 5.3486-12.533 1.1431-0.70654 4.3774 0.87518 7.1873 3.5149 4.3171 4.0556 5.4065 4.3287 7.0298 1.7618 1.0566-1.6707 1.9353-4.6282 1.9526-6.5721 0.017334-1.944 1.928-4.5494 4.2461-5.79 3.4753-1.8599 8.4463-0.39703 28.341 8.3398 13.269 5.8274 32.474 12.93 42.676 15.783 22.062 6.1693 28.77 9.4647 15.458 7.5945-9.9285-1.395-47.738-13.71-65.276-21.262-14.962-6.4423-18.197-5.3534-18.212 6.1303-0.009521 7.3613-0.68896 9.117-3.3579 8.6795-4.0188-0.65875-6.4917 6.937-3.8594 11.855 2.3132 4.3225 15.275 8.2792 27.049 8.2568 4.97-0.009399 18.945-1.3256 31.056-2.9248 14.814-1.9562 31.252-2.5206 50.229-1.7249l28.21 1.1827-1.3391-24.537c-0.9696-17.77-0.57422-27.38 1.4336-34.843 3.2904-12.23 8.0469-13.728 9.8179-3.0917 0.66052 3.9676 3.7686 13.596 6.9069 21.396 3.1383 7.8001 6.1517 17.539 6.6966 21.642 2.3579 17.752 1.2571 16.735 18.101 16.735 18.952 0 38.804 3.7413 76.173 14.355 30.072 8.5419 48.687 12.671 50.915 11.294 0.70581-0.43622-0.37097-5.6799-2.3929-11.652-2.095-6.1884-3.183-13.529-2.5297-17.066 1.4114-7.6382 21.016-65.307 29.234-85.996 3.3149-8.3447 7.6089-25.341 9.5421-37.77 3.9008-25.076 5.5525-29.796 5.007-14.304-0.19873 5.6414 0.61316 14.37 1.8042 19.397 2.6533 11.198 0.21558 34.36-5.7629 54.755-2.3262 7.9354-6.5791 24.851-9.4509 37.591-5.6852 25.22-5.3002 35.304 1.6118 42.216 4.405 4.4051 3.644 6.952-1.4888 4.9823-1.8005-0.69092-4.7082-4.6895-6.4616-8.8857-3.9-9.3342-2.7609-20.753 5.4351-54.483 5.5189-22.713 9.9114-49.406 7.7644-47.185-0.54797 0.56683-7.3672 18.19-15.154 39.162-12.128 32.664-14.164 40.072-14.205 51.67-0.039795 11.381 0.86072 14.913 5.65 22.157l5.6973 8.6177h18.544c22.974 0 35.448-4.8241 39.045-15.101 2.0027-5.7211 1.7522-6.9779-1.9993-10.031-2.3589-1.9197-9.4683-5.4284-15.799-7.797-10.573-3.9558-11.909-4.0453-16.404-1.0995-2.692 1.7638-4.8945 5.0953-4.8945 7.4033s-0.92749 3.6232-2.061 2.9226c-1.1337-0.70062-2.0612-3.969-2.0612-7.2631 0-10.969 12.407-13.268 32.012-5.933 6.3557 2.378 11.974 3.9049 12.486 3.3932 0.51172-0.51172-0.085693-14.283-1.3276-30.603s-2.4204-68.164-2.6184-115.21c-0.34338-81.505-0.13708-86.703 4.376-110.27 6.4081-33.462 16.17-61.705 34.866-100.87 15.604-32.689 15.688-32.954 16.647-52.878 1.2299-25.539-0.28259-33.167-8.4119-42.426-16.988-19.349-39.296-19.708-64.647-1.0419-7.7529 5.7085-8.8882 7.725-11.966 21.258-4.1804 18.38-4.2114 38.044-0.22388 141.36 1.7175 44.497 2.4211 89.781 1.6176 104.09l-1.4226 25.323-1.3666-17.52c-0.75171-9.6358-1.4792-35.142-1.6167-56.681-0.13745-21.539-1.1426-58.252-2.2336-81.586-1.0911-23.333-2.1963-58.579-2.4562-78.323l-0.4724-35.899 6.4956-13.87c7.5809-16.188 6.9275-17.254-9.9921-16.312-8.5173 0.47424-13.747-0.45422-19.719-3.5008-10.174-5.1902-11.622-6.9627-17.114-20.942-2.4482-6.2321-7.1923-15.969-10.542-21.637l-6.0909-10.306 8.0055 8.6815c4.4929 4.8723 9.9756 14.085 12.496 20.997 5.2819 14.486 13.055 21.897 25.101 23.933 11.09 1.8736 15.01-1.5749 6.6849-5.8801-3.3162-1.7148-9.5894-8.5182-13.941-15.119-4.3511-6.6004-11.696-16.638-16.322-22.306-11.459-14.041-59.355-63.623-62.816-65.028-1.5923-0.6463-3.0852-5.0668-3.4747-10.289-0.82886-11.114 3.127-16.406 12.254-16.395l6.3791 0.0078-6.6986 4.0842c-11.917 7.266-9.89 11.601 19.628 41.978 30.529 31.417 41.532 44.242 53.023 61.807 7.9998 12.227 19.832 21.395 28.137 21.801 2.9712 0.14526 14.559-6.569 30.258-17.532 5.8131-4.0596 12.7-14.918 12.71-20.041 0.00415-2.0517-4.7327-8.7427-10.527-14.869l-10.534-11.138 11.551 6.2563c12.169 6.5908 17.762 12.571 17.762 18.991 0 7.8737-7.126 18.466-17.891 26.593-6.0908 4.5986-10.725 8.7106-10.298 9.1378 0.42712 0.42712 5.4023-0.29114 11.056-1.5962 12.377-2.8569 25.903 0.80078 39.244 10.612 13.123 9.6508 15.767 17.404 14.342 42.052-1.439 24.883-6.8065 43.536-19.018 66.092-9.3203 17.216-24.577 61.358-31.871 92.21-6.8214 28.855-8.4087 65.182-6.1473 140.7 1.1201 37.41 3.0162 80.075 4.2134 94.812 2.8545 35.137 1.252 49.443-6.3945 57.089l-5.7751 5.7751-38.805-0.1302-38.805-0.1301-48.437-12.261zm-682.24-8.0885c6.7092-3.5906 10.724-15.486 11.87-35.166 1.0095-17.347 0.81201-18.282-11.658-55.237-6.9763-20.675-14.068-44.734-15.76-53.463-5.0471-26.05-7.7161-78.454-6.2676-123.05 2.8733-88.45 9.895-120.6 47.325-216.72 27.906-71.654 28.874-79.279 11.093-87.35-17.193-7.8041-59.946-2.7516-78.04 9.2228-8.762 5.7983-16.272 19.809-16.272 30.356 0 6.1329 1.6931 8.8954 10.502 17.135l10.502 9.8235 12.726-1.0215c14.165-1.137 31.686-8.8596 39.686-17.491 7.3103-7.8881 6.7248-18.074-1.2769-22.212-7.7693-4.0176-7.7869-5.1528-0.080322-5.1528 6.8176 0 14.508 6.8049 14.508 12.838 0 6.0895-7.5193 19.164-14.305 24.874-8.3247 7.0048-27.296 13.973-41.727 15.327-10.106 0.948-12.995 0.35095-20.998-4.3391-5.104-2.9912-9.6943-4.7377-10.201-3.8812-0.98657 1.6689 3.259 76.201 6.6638 116.98 6.5244 78.144 4.2441 181.75-6.7942 308.71-5.7119 65.694-5.1094 73.128 4.9231 60.752 3.2031-3.9512 5.6924-4.6221 16.82-4.5334 8.2253 0.065552 15.539 1.4204 19.758 3.6599 8.1314 4.3164 8.1038 4.4755 3.6694-21.284-6.4287-37.343-13.799-116.46-10.544-113.19 0.47022 0.47235 1.9185 10.598 3.2183 22.501 2.519 23.067 15.517 103.89 18.438 114.65 2.9729 10.954 0.21802 11.85-14.808 4.8185-15.901-7.4407-27.144-7.7021-31.742-0.73785-2.5037 3.7924-2.4031 4.9058 0.79565 8.8037 6.4133 7.8152 36.431 10.553 47.974 4.3757zm249.77-530.29c-5.3101-6.3985-6.6487-14.328-4.4578-26.41 1.8416-10.155 1.6475-13.104-1.229-18.666-2.4248-4.6888-3.0796-9.4472-2.2566-16.397l1.1597-9.791-9.676-2.0531c-5.3218-1.1292-16.421-2.7081-24.665-3.5088-14.533-1.4114-23.108-5.128-11.412-4.9463 10.939 0.16992 54.371 5.5513 55.724 6.9044 0.74463 0.74457 0.24854 4.4107-1.1025 8.147-3.1499 8.7106-3.1421 18.388 0.016846 21.547 3.9939 3.9937 4.9946 2.9117 4.1331-4.4683-0.75-6.425 3.4717-18.195 7.396-20.621 0.91577-0.56598 9.9656 0.84882 20.111 3.1439s28.177 5.2786 40.072 6.6301c18.855 2.1423 21.72 2.9772 22.357 6.5158 1.2268 6.8079 4.0415 8.162 8.5271 4.1026 6.0124-5.4411 5.4661-11.38-1.0466-11.38-7.8076 0-8.9326-5.8927-2.2266-11.661 6.6289-5.7019 11.649-6.4914 6.7329-1.0587-5.1567 5.6982-4.3462 10.659 1.7417 10.659 7.2734 0 6.6951 5.9021-1.6506 16.844-8.6096 11.288-12.16 11.382-14.336 0.38025-1.9876-10.051-4.1186-10.972-25.481-11.013-8.0703-0.015503-22.742-1.4352-32.603-3.1548-2.0894-0.36438-4.137-0.69074-6.0769-0.9726-7.2161-1.0485-12.941-1.4815-13.774-0.96692-1.0564 0.65295-1.9148 6.9294-1.9072 13.948 0.007568 7.0182-1.0718 20.18-2.3984 29.25-2.9758 20.342-6.2 25.591-11.672 18.998zm448.84-19.292c-7.305-7.4686-17.177-15.35-21.937-17.513-4.7604-2.1638-10.63-6.7081-13.045-10.098-4.8198-6.7689-15.4-13.166-18.553-11.218-1.1003 0.67999-2.09 5.1236-2.1993 9.8746-0.10938 4.751-1.2687 13.74-2.5764 19.974-1.9525 9.3094-3.2068 11.454-7.0151 11.995-5.1377 0.72968-5.3916-0.070923-4.6968-14.807 0.46069-9.7676-4.5026-25.26-9.1589-28.589-4.6699-3.3388-38.122-1.6368-50.02 2.5449-12.334 4.335-31.882 5.4241-40.25 2.2426-6.9712-2.6504-9.898-0.05719-12.79 11.332-2.928 11.531-6.3784 13.768-9.3169 6.0394-2.7693-7.2841-2.6165-11.37 0.42529-11.37 1.3744 0 4.3888-2.3592 6.6987-5.2427 4.0249-5.0245 5.2717-5.2747 29.964-6.0118 14.17-0.42304 31.329-2.2045 38.131-3.959 13.163-3.3953 27.323-4.1586 37.9-2.0432 4.832 0.96643 6.7527 2.6605 7.5944 6.6987 2.1652 10.388 9.1256 17.349 9.1256 9.1272 0-7.216 5.9362-12.997 13.346-12.997 9.1857 0 13.449 1.805 13.449 5.6941 0 4.965 10.086 16.978 14.255 16.978 2.0566 0 6.0782 1.8397 8.9368 4.0883 6.7899 5.3409 27.075 28.777 25.914 29.939-0.49463 0.49469-6.8763-5.2112-14.181-12.68zm84.163-11.526c-9.8883-5.8411-17.648-10.951-17.244-11.355 0.87231-0.87231 36.253 19.812 36.253 21.195 0 1.4142 0.33899 1.5896-19.009-9.8397zm-275.75-39.681c5.083-6.1245 0.9303-9.3013-12.159-9.3013-6.7703 0-12.883-0.92749-13.584-2.0611-0.79858-1.2921 3.6509-2.0612 11.926-2.0612 10.17 0 13.982 0.86517 16.611 3.7693 4.3092 4.7615 4.3761 9.8474 0.15088 11.469-5.0343 1.9318-5.7091 1.5162-2.945-1.8144zm-92.729-4.8946c1.7004-1.0695 14.686-2.459 28.856-3.0877 16.482-0.7312 22.794-0.50879 17.52 0.61731-12.936 2.7622-49.976 4.7352-46.376 2.4704z" fill="#64635d"/>
  </g>
  <g transform="matrix(.22222 0 0 .24665 423.93 270.1)" fill="#8b4513">
   <path d="m-2293.2-910.84l-3.3772 4.501-2.25 2.251-4.501 2.475-0.676 2.026s-1.801 1.801-1.575 2.927c0.22607 1.126 0.22607 3.151 0.22607 3.151s-3.1511 2.926-4.502 3.826c-1.3511 0.89996-3.1521 2.926-3.1521 2.926s-1.125 1.351-1.8 1.801c-0.6748 0.44898-1.7998 1.8-2.7009 3.151-0.90112 1.351-1.801 2.25-2.251 2.925-0.44995 0.67499-1.801 2.251-2.4761 4.727-0.67505 2.477-2.4758 5.402-2.4758 5.402l-0.4512 1.125c0.22607 3.827 0.2251 4.502 0.67602 5.853 0.44995 1.35 0.90112 0.89899 0.44995 3.826-0.44995 2.925-0.44995 4.051-0.8999 5.402-0.44995 1.349-1.801 3.825-2.25 4.952-0.45093 1.125 0.8999 3.15 0.8999 3.15s0.67602 2.927 0.2251 3.602c-0.44995 0.67602 0.2251 2.026 0.2251 2.026s2.7009 1.575 3.6018 2.476c0.90015 0.89996 2.4761 2.251 2.7012 2.926 0.22583 0.67602 2.0259 3.827 2.251 4.502 0.22485 0.67499 2.0259 3.15 2.4758 3.826 0.4502 0.67602 2.7012 3.152 2.7012 3.152s2.926 2.249 3.602 3.15c0.6748 0.90002 2.7009 1.35 3.375 2.025 0.67578 0.67499 2.251 0.44898 3.1509 1.126 0.90088 0.67505 2.7009-0.45099 3.602 0 0.8999 0.45001 3.377-0.44995 4.052-0.89996 0.67505-0.45001 2.25-2.025 3.376-1.351 1.125 0.67401 1.8 0 2.7009 0.22498 0.89893 0.22504 2.25-0.89899 3.1502-0.89899 0.90088 0 3.1509-0.901 3.8259-0.901 0.67602 0 2.927-1.352 3.8279-1.352 0.89917 0 2.0252-0.89801 3.1502-0.44898 1.125 0.44898 0.67505-0.89905 2.7009-0.22504 2.0261 0.67401 2.7009 0 3.376 0.67401 0.67602 0.67602 1.5769 0.002014 2.252 0.90198 0.67505 0.89905 1.8 1.574 2.0252 2.475 0.22388 0.901 1.575 1.802 1.575 1.802l1.3511 0.224s1.802-1.35 2.251-0.44904c0.44995 0.90002 2.4758 0.67602 2.4758 0.67602l2.0251 2.25 0.676 0.9s1.3508 3.6019 1.125 4.952c-0.2251 1.35-0.2251 4.276-0.90015 4.951-0.67505 0.67602-1.125 3.602-1.125 3.602s-0.90088 0.90002 1.125 2.701c2.0261 1.802 3.3772 3.376 4.052 4.275 0.67602 0.901 2.477 3.378 2.7002 4.953 0.22583 1.575 0.67578 2.475 1.5769 4.501 0.8999 2.026 2.0249 2.251 2.25 4.503 0.22607 2.25 0.67505 2.251 0.44995 3.825-0.2251 1.576-0.8999 1.801-0.2251 2.926 0.67505 1.126 1.5742 3.152 1.3511 3.827-0.22485 0.67499-0.67602 3.601-0.67602 3.601l-0.45 1.351-2.0249 3.828-1.3511 2.024c-0.44995 1.575-1.3501 3.151-1.125 5.402 0.22412 2.251-1.125 2.25 0.67505 4.5 1.801 2.2521 2.7 4.728 3.8259 6.754 1.126 2.025 1.801 4.051 2.0249 5.401 0.22607 1.351 1.1262 1.802 1.5762 3.602 0.44898 1.801 0.67505 2.7 0.67505 3.8259 0 1.125-0.22607 4.052 0.22583 4.727 0.44898 0.67499 0.67505 2.702 0.90015 3.602 0.22485 0.901-0.67602 1.126 0.67505 2.702 1.3508 1.575 2.251 2.475 3.1509 3.601s0.67505 0.67499 1.3511 2.251c0.6748 1.575 1.575 2.477 1.801 3.826 0.22485 1.35 0.44898 4.726 1.125 6.302 0.6748 1.576 1.575 3.152 1.575 3.152s2.477 1.575 3.377 1.35c0.89893-0.22504 2.7009-2.249 4.052-1.5751 1.3511 0.67505 2.4761 0 3.6011 0s2.251-1.351 3.377-1.351c1.125 0 2.7-1.801 3.602-1.35 0.8999 0.44898 2.0239-0.45203 3.1499-1.577 1.126-1.124 1.801-2.024 3.8259-3.825 2.0261-1.801 1.801-1.802 3.1511-2.927 1.3508-1.126 2.7019-3.602 4.2771-4.052 1.575-0.45001 2.0249-2.024 2.4748-3.15 0.45093-1.126 0.67505-1.801 1.3511-2.702 0.67602-0.89899 0.22485 0.22803 1.3508-2.7 1.126-2.927 2.478-4.051 3.603-4.727 1.125-0.67499 1.8-2.025 2.4751-2.251 0.67505-0.22601 1.801 0.67499 1.3511-1.351-0.44922-2.025 0-4.951-0.44922-5.626-0.45093-0.677-1.127 1.574-0.90088-1.803 0.22705-3.375 2.7009-6.752 2.7009-6.752s3.376-4.276 4.5022-4.951c1.126-0.67499 1.3498-1.35 2.9268-2.251 1.5742-0.89905 4.9512-3.15 4.9512-4.276s1.3511-4.052 1.3511-4.728c0-0.67499 0-1.35-0.44922-5.177-0.45093-3.825 0.44922-2.926-0.90088-6.527s-1.5772-8.103-2.4761-9.228c-0.90088-1.126-0.45093-4.053-0.45093-4.952 0-0.89996 1.5769-3.151 2.252-4.051 0.67505-0.901 3.6011-4.503 3.6011-4.503s4.501-5.176 6.0769-7.651c1.5762-2.477 3.1511-4.727 4.2761-5.627 1.126-0.90002 3.8269-2.928 5.4019-5.178 1.5762-2.25 4.727-6.526 4.9531-7.203 0.22388-0.67401 2.0239-2.925 2.0239-2.925s2.4761-2.927 2.927-4.502c0.44898-1.576 2.699-10.354 2.249-9.904-0.448 0.45099-3.1499 0.90002-4.051 1.125-0.89893 0.22601 1.352 1.125-5.177 0.67602-6.5259-0.45105-9.9019 0.67499-9.9019 0.67499-2.0271-0.45099-3.602 1.8-4.2781-1.351-0.67505-3.15-1.126-4.951-2.4751-7.202-1.3508-2.251-2.252-3.151-4.2759-6.078-2.0252-2.925-1.802-1.576-3.603-3.825-1.8-2.251-2.251-1.577-3.376-4.502-1.125-2.926-2.0252-1.8-3.376-5.852-1.3511-4.053-2.2512-4.503-2.926-6.753-0.67602-2.25-1.5752-2.927-2.0261-4.952-0.44995-2.026-5.626-12.379-6.302-13.055-0.67602-0.67401-1.801-4.277-1.5759-3.601 0.22607 0.67499 3.377 2.926 3.377 2.926s1.8-0.67602 2.4761-0.67602c0.67505 0 3.376 2.477 3.376 3.376 0 0.901 4.729 5.178 5.853 8.329 1.125 3.151 2.478 5.402 2.7009 6.302 0.22314 0.90002 2.4761 4.502 3.377 5.853 0.89917 1.351 3.8252 4.051 4.2752 5.402 0.44995 1.351 4.728 5.852 4.728 8.778s2.0239 6.752 2.25 7.652c0.22583 0.89996 4.2759 2.027 4.2759 2.027l5.4031-1.351s8.102-5.178 9.0029-5.178c0.89893 0 8.104-3.376 8.104-3.376s2.925-2.7 4.95-4.275c2.0261-1.576 4.2771-4.501 4.728-5.853 0.44898-1.351 1.3501-1.575 3.1502-3.602 1.8008-2.0259 4.2769-4.051 2.7019-5.402-1.5759-1.35-2.477-0.89996-4.727-3.151-2.251-2.25-2.0259-1.8-3.602-4.727-1.5759-2.925 0.2251-6.302-3.1519-2.925-3.375 3.376-2.0252 4.2759-5.4021 4.9529-3.375 0.67407-4.727 2.925-6.302 0.67407-1.575-2.251-3.1499-0.90002-4.052-4.277-0.8999-3.376-1.5759-3.602-1.8-4.951-0.22388-1.351 0-1.351-1.801-4.728-1.7998-3.376-0.44995-8.553 0.67505-5.627 1.126 2.926 2.926 3.376 5.853 5.402 2.925 2.025 4.2771 3.602 6.977 3.827 2.7009 0.224 4.9519 0 5.4021 0.44898 0.44995 0.45099 0.8999-0.224 2.0259 0.22498 1.126 0.45105 1.574-0.67395 2.0249 1.125 0.4502 1.801 2.926 2.026 4.051 3.151 1.1262 1.125 1.1262 0.67602 4.053 1.125 2.9272 0.45105 6.979 0.45105 6.979 0.45105l4.2751-0.226 4.9519 0.449s3.603 2.026 4.502 2.026c0.90015 0 1.125 2.477 3.376 3.827 2.251 1.351 2.7012 1.575 4.0513 3.1509 1.3528 1.576 1.126 2.251 2.9258 3.826 1.802 1.577 4.729-0.224 5.1792-0.89801 0.44775-0.67596 2.6987-1.801 2.251 0-0.45117 1.8 2.249 1.124 1.574 5.402-0.67505 4.275-1.1262 3.15 0 6.077 1.125 2.926 6.0769 11.929 6.303 14.63 0.22607 2.701 1.575 1.801 1.7998 4.278 0.22607 2.475 1.5752 3.375 1.5752 5.176s1.5769 2.25 1.801 3.602c0.22681 1.351 2.7019 0.224 3.377 0 0.67602-0.22595 3.8259-3.152 3.8259-3.152s1.353-0.44898 1.126-2.701c-0.22607-2.249 0-1.8 0-5.176s-1.3498-3.376-0.6748-6.751c0.6748-3.376 2.4748-5.403 2.9258-6.978 0.4502-1.575 2.251-4.276 3.1502-4.502 0.8999-0.22498 5.8529-2.7 6.979-4.277 1.125-1.575 2.9259-3.376 4.7269-5.176 1.7999-1.8 4.951-4.051 5.6271-3.376 0.67493 0.67499 0.44995 0.45001 1.5759 0.45001 1.125 0 3.151 0.901 4.7261 1.126 1.5759 0.22504 4.7279 4.051 5.403 6.077 0.67493 2.026 0.22498 1.575 2.701 4.502 2.4758 2.925 4.7269 1.124 4.7269 4.726s0 3.376 1.126 4.727c1.125 1.351 2.475-2.476 3.8251-2.025 1.3498 0.45099 1.575-0.45001 2.7 3.151 1.125 3.602 1.8 3.602 2.027 7.203 0.224 3.601-0.22595 0.22498-0.22595 3.15 0 2.927-0.22607 3.152 0.22595 5.852 0.4491 2.703 2.0231 3.603 1.7999 4.053 0 0 1.3501-3.826 0.89917-6.528-0.448-2.7 0-6.526 1.126-7.651 1.125-1.127 2.252-2.251 3.1509 0.67505 0.90112 2.925 1.3511 0.67499 3.376 4.051 2.0271 3.377 3.8272 2.7 4.052 4.276 0.2251 1.576 1.353 1.802 2.926 3.151 1.576 1.351 2.926-0.224 4.727-1.575 1.802-1.351 6.752-6.303 6.979-8.329 0.224-2.025 2.25-1.576-1.352-6.751-3.6019-5.177-3.6019-6.978-7.428-10.129-3.824-3.151-6.0759-3.376-3.1489-7.428 2.926-4.052 4.277-6.752 6.0769-5.626 1.801 1.125 4.9501 0.89899 4.9501 5.402 0 4.501-0.90002 9.453 2.251 4.051s4.728-8.553 3.826-7.651c-0.89905 0.90002 2.0259-1.801 2.0259-1.801s0.22607-2.026 4.0531-2.926c3.825-0.90198 4.95-1.351 6.302-2.026 1.35-0.67602 5.177-5.178 5.8519-7.203 0.67505-2.026 2.4761-5.627 2.0261-7.202-0.45007-1.577-2.7022-9.228-3.1521-9.004-0.44898 0.22601-0.224 0.22601-3.1489-2.925-2.928-3.151-4.9531-5.402-5.4031-6.753-0.44995-1.351-1.5759-1.576-0.22595-3.376 1.3519-1.8 2.027-1.575 2.252-3.151 0.224-1.575 2.024-2.926-1.3519-1.8-3.375 1.125-0.90002 0.45099-3.826 0.22601-2.926-0.22601-10.578 1.575-6.751-3.151 3.825-4.727 4.949-7.652 5.625-7.652 0.677 0 4.053-3.827 4.277-0.22601 0.22607 3.601 1.575 2.7 1.801 4.951 0.22595 2.251 4.727-2.475 4.727-2.475s1.575 0.44995 2.7 1.575c1.126 1.125 1.126 4.727 1.126 4.727s-0.90002-1.126 1.5759 0.67499c2.477 1.802 5.176 0.89996 5.176 4.727 0 3.826 0 4.052 1.576 4.952 1.577 0.89996 3.15 0.45099 4.503-0.67505 1.3498-1.125 3.5998-5.177 3.5998-5.177s0.2251-1.576-3.376-3.827c-3.601-2.25-5.8519-3.825-7.2009-4.951-1.352-1.125-0.901-4.501 0.448-5.853 1.353-1.351 2.026-2.026 1.5759-3.826-0.45093-1.802 0.67602-3.152 4.052-2.927 3.376 0.22601 4.051-0.224 4.051-0.224s0.677 0.44898 0.677-0.901 4.275-7.653 3.149-7.653c-1.125 0 0.2279-1.575-0.45007-4.051-0.67493-2.477 2.251-6.302-0.22388-8.103-2.4761-1.801-3.1521-2.702-4.727-5.402-1.575-2.702-1.352-3.151-7.203-3.827-5.8519-0.67499-8.553 1.351-9.9039-0.44898-1.3511-1.801-2.0252 2.7-2.925-2.702-0.90002-5.402 1.351-9.004 1.351-9.004s3.601-2.25 4.5-3.826c0.90002-1.576 4.5011-2.251 7.43-1.125 2.926 1.125 7.2009 0.90002 10.804 1.577 3.6011 0.67401 3.376 2.925 5.177 0 1.8-2.928 0-4.277 1.3501-5.853 1.3519-1.576 2.9259-4.052 4.0509-2.477 1.125 1.577 3.379 3.151 5.18 1.125 1.7999-2.025 2.475-2.25 2.475-2.25l0.8979 0.901s2.026-1.127 2.026 0.89801c0 2.027 2.0271 4.278 0.901 5.853-1.127 1.577-2.7 1.351-2.7 5.177 0 3.828 0 3.152 2.474 6.304 2.477 3.15 4.052 0.44904 4.502 3.826 0.45105 3.376 0.89905 2.702 3.377 4.952 2.4761 2.25 2.024 2.25 3.826 3.601 1.801 1.351 2.702 2.702 2.702 0.45099s0.22498-3.376 0-5.402c-0.22705-2.025 1.801-3.602 0.448-6.978-1.35-3.376-0.224-3.151-2.925-5.627-2.7019-2.475-4.5029 0.45105-5.4009-3.151-0.90112-3.601 4.2749-5.177 5.627-5.627 1.35-0.44904 3.374-3.151 3.824-1.35 0.45093 1.8-3.375 8.328 3.1531 1.35 6.5259-6.977 3.601-4.051 3.601-4.051s3.376-0.45001 4.0509 0c0.67407 0.45099 2.478-2.026 1.8-1.8-0.67505 0.22601-7.2-3.602-7.2-3.602l-4.729-2.7s1.5769-1.126 2.7019-0.90002c1.1261 0.22504 1.352-2.251 2.478-2.477 1.125-0.22498 8.7771 1.577 10.354 2.477 1.575 0.90002 7.201 1.125 6.525 0.67499-0.67493-0.45099-4.275-3.151-4.501-4.052-0.224-0.89996-8.103-2.701-10.578-2.476-2.477 0.224-4.7261 0.89899-6.752 0.224-2.0271-0.67505-4.952-2.476-6.5281-2.476-1.575 0-21.382-3.826-22.282-3.601-0.90002 0.22498-2.252 4.501-2.927 3.826-0.67505-0.67499-1.8-0.67596-4.953-1.576-3.149-0.90002-7.427-1.576-13.055-2.025-5.626-0.44995-9.4509 0.45001-11.027-1.351-1.5762-1.8-4.9512-1.125-8.7781-1.351-3.8259-0.224-8.328 0-10.354 0s-6.751-0.224-7.877-0.45001-2.4761-1.801-3.826-2.025c-1.3519-0.22595-1.1271-0.67499-3.827-1.125-2.7009-0.45099-2.476-3.376-3.376-0.90094-0.90002 2.477-0.45093 1.801-1.801 2.701-1.351 0.901-2.7009 2.701-3.602 2.701-0.89893 0-4.5 0.22498-5.177-0.22504-0.6759-0.44995-1.8009-0.89996-4.052-0.89996-2.251 0-2.251 0.224-5.177-0.22601-2.9259-0.45001-5.177-0.22601-7.8779-1.575-2.7009-1.351-2.7009-2.251-4.9519-2.026-2.249 0.22601-2.249-0.44995-5.4021-0.44995-3.1499 0-6.976 1.801-9.0029 2.0259-2.024 0.22504-6.5261-0.22595-8.102-0.90094-1.5769-0.67505-2.0261-2.25-7.8792-1.576-5.8518 0.67602-9.2278 0.67602-8.1028-1.125 1.126-1.8 2.4758-3.601 3.1509-3.826 0.67602-0.22498 2.25-1.35 1.124-1.8-1.124-0.45099-2.25-1.1251-4.95-1.351-2.7022-0.22498-2.478 0.90002-6.5281 0.44995-4.051-0.44995 2.251-1.575-6.0759-1.35-8.3281 0.22607-10.354 0.90002-11.254 0.90002-0.90112 0-2.0271-1.8-4.2771 0.90002-2.251 2.701-5.404 4.276-9.904 4.501-4.501 0.22601-4.727-0.45001-9.002 1.125-4.2769 1.575-6.979-0.45001-6.0781 3.151 0.89917 3.601 2.0261 4.952 2.0261 5.627 0 0.67499-2.0261 5.177-4.501 2.476-2.478-2.701-6.979-13.28-4.9529-6.077 2.0249 7.202 6.5259 9.679 2.251 10.804-4.2761 1.125-3.8281-0.45001-4.5032-0.901-0.67407-0.45001 0-3.601-0.22485-5.402-0.22607-1.8-0.67505-2.926-1.5752-3.826-0.89893-0.901-0.67578-2.251-2.4758-2.701-1.801-0.45001-0.2251-1.351-3.1511-1.351s-5.4009-1.801-4.7261 2.251c0.67407 4.051 1.3491 1.351 3.1492 5.177 1.8 3.826 5.177 1.125 2.7019 3.826-2.4761 2.701-9.0029 1.801-10.579 0.67596-1.5762-1.126-1.125 0.45001-4.053-1.576-2.926-2.026-2.0242-3.602-5.4002-2.026s-4.502 4.502-5.853 3.376c-1.3508-1.126-4.501 1.575-5.627 0.22595-1.126-1.351-5.6279-1.351-6.5271 0-0.90088 1.35-3.6018 1.125-7.428 2.926-3.8259 1.8-2.7019 0.224-7.428 4.051-4.728 3.826-7.429 6.977-9.0029 4.501-1.5759-2.475-10.13-6.752-6.7529-7.428 3.377-0.67505 4.9519-2.025 6.7529-0.45001s4.728 1.126 5.176 0c0.44995-1.126 2.477-2.251-0.2251-3.601-2.7009-1.351-2.926-0.45099-7.2019-2.026-4.2771-1.576 0-1.125-5.853-2.026-5.852-0.90002-8.3291-1.35-9.904-1.8-1.574-0.45001-3.8259 0-6.0759-0.22498-2.252-0.22504-3.8259-0.67505-5.853-0.45001-2.0249 0.22498-3.1499-0.22504-5.852 1.801-2.7019 2.026-4.728 2.926-6.5278 4.501-1.8 1.575-6.5261 4.727-7.8772 5.853-1.3508 1.125-6.0779 4.726-6.5278 6.077-0.44995 1.351 0.44995 2.476-1.3511 3.376-1.801 0.90002-3.6011 0.90002-4.9519 1.125-1.3511 0.22504 0-2.026-1.3511 0.22504-1.3501 2.251-0.8999 10.354 0.2251 9.228s0.44995-4.726 5.4019-1.349c4.9522 3.375 8.104 2.925 7.8779 6.076-0.22485 3.151 3.376 2.926 3.8262 3.602 0.44995 0.67395 2.7009-0.901 2.7009-0.901s4.9519-3.151 4.9519-4.726c0-1.576 3.1511-5.177 3.1511-5.177s-2.252-1.125-2.252-3.376c0-2.25 0.677-2.927 1.126-5.178 0.44995-2.25-2.4761 9.77e-4 4.2769-4.277 6.7512-4.276 7.2022-1.349 7.2022-1.349s0.89893 0.89996-0.22607 2.25c-1.125 1.351-3.1509 4.953-3.6011 5.402-0.45093 0.45099 2.0261 4.052 3.1502 4.052 1.126 0 3.377-0.901 4.728-0.67602 1.3508 0.22601 3.6008-0.67395 4.2759-0.224 0.67602 0.45001 2.251 1.8 1.125 2.926-1.125 1.125-3.602 2.475-5.4009 2.026-1.802-0.44898-4.5032-3.602-2.927 0.90002 1.5759 4.502-0.2251 5.627-1.5762 5.402-1.3489-0.22498-4.2759-2.475-3.8259 0.901 0.45093 3.375-2.925 5.626-3.6011 5.626-0.67578 0-2.0249-0.22498-2.0249-0.22498s-2.0271-0.22601-3.1509-0.22601c-1.1262 0-3.3772 1.125-4.0522 2.026-0.67578 0.90002-1.5759 0.22601-2.7009 0.22601s0-1.351-2.251-1.801c-2.25-0.44995-3.6011-0.89996-4.9509 0-1.3511 0.90002-3.376 1.35-4.2771 0.67505-0.8999-0.67505 0.45093-2.252-1.3508-1.35-1.8 0.90002-3.1511 3.376-3.8262 3.602-0.67505 0.224 2.0261 0-0.67505 0.224-2.7009 0.22601-3.8259 0.90204-5.177 1.351-1.3508 0.45099 0.4502 3.151-2.0259 4.051-2.4761 0.89996-0.67407-1.125-3.1509 0.89996-2.4761 2.027-2.9272 3.827-3.8262 4.052-0.90088 0.22601-0.67505 0.67499-2.7009 0.90002-2.0261 0.22498-1.8 0.45001-2.927 0.67499-1.125 0.22498 0.22607 0.67602-2.25 0.22498-2.477-0.44995-4.2771 0.45105-3.8272 1.351 0.4502 0.90002 8.7781 3.376 2.4761 3.151-6.302-0.22498-4.2759 0.90002-2.926 1.8 1.3511 0.90002 2.0252 1.8 2.7012 2.026 0.67602 0.22504 1.7998 2.927 1.7998 2.927s1.801-0.22601 0.67602 1.35 0.4502 2.026-0.67602 4.052c-1.125 2.026-1.125 0.67499-2.0249 1.125-0.8999 0.44898-2.251 2.026-4.728 0.67499-2.4761-1.351-4.2749-2.026-7.2019-2.25-2.926-0.22601-0.90112-0.67499-2.926 0.89899-2.0261 1.577-2.4761 3.377-2.25 5.402 0.22485 2.025 0.44995 4.727-0.22607 6.078-0.67505 1.35-0.67505 2.701-0.22607 4.727 0.45117 2.025 1.802 2.927 1.802 2.927s3.1511 0.44898 3.8262 0.67499c0.6748 0.22498 2.0259-0.45001 3.8259 0.67401 1.801 1.126 3.602 1.577 4.727 0.22595 1.125-1.35 5.627-2.926 6.979-4.276 1.3498-1.351 2.25-1.8 1.575-3.151-0.67505-1.351 1.3511-4.727 2.4761-5.402 1.125-0.67499 3.6008-1.351 3.6008-1.351l2.7012-4.051s2.251-2.477 3.376-2.251c1.125 0.22504 7.427 2.477 6.978-0.44898-0.4502-2.927 0.44995-3.827 1.125-2.702 0.6748 1.125 2.4758 0.67499 2.4758 0.67499s0.90015-0.44898 1.5752 0.22601c0.6748 0.67401 1.575 3.602 2.9258 4.276 1.3511 0.67602 2.4761 1.351 3.3772 1.8 0.8999 0.45105 1.801 0 3.6018 1.576 1.8 1.576 3.6011 2.477 3.8252 3.151 0.22681 0.67499 1.802 2.251 1.802 2.251s1.575 0.45001 1.125 1.351c-0.4502 0.89996-2.7002 3.602-3.8262 4.051-1.126 0.45001-4.051-0.45099-2.926 0.45001 1.124 0.90002 2.7012 2.026 3.376 1.35 0.67602-0.67505 4.9512-5.177 4.9512-5.177s-0.2251 0.22498 0-1.126c0.22607-1.349 0-2.925 1.126-2.25 1.125 0.67602 1.801 1.576 2.251 0.67602 0.44995-0.901 0.8999-0.45001-0.22607-1.125-1.126-0.67602-3.8259-4.502-5.177-4.727-1.3508-0.22601-4.728-2.477-4.728-2.477s-0.67383-0.67499-2.25-2.475c-1.5759-1.801-2.0249-1.351-2.4768-2.927-0.44922-1.575-1.801-3.601 0.67578-3.151 2.477 0.45001 4.051 2.025 6.3022 3.376 2.251 1.351 1.8018 1.8 3.8269 3.151 2.0249 1.351 2.252 2.702 3.8259 2.477 1.575-0.22504 3.377 0.89996 3.377 2.926s0.44922 4.276 0.89917 4.727c0.45093 0.45105 1.8 1.351 2.251 2.251 0.44995 0.89996 1.3508 3.151 2.0249 4.051 0.67602 0.90002 1.3511 1.576 2.0261 2.702 0.6748 1.125 0.8999-0.22601 1.575 0.22498 0.67602 0.45001 1.5759 0.224 1.5759-0.67596 0-0.90002 0.22412-2.476 0.22412-2.476s3.1528-0.90002 2.2529-1.351c-0.90088-0.45001-3.603-3.151-3.377-4.051 0.22485-0.90002 0-2.7 1.124-2.475 1.126 0.224 2.252 2.25 4.728 0.44904 2.4758-1.801 5.4019-2.701 4.501 0-0.89917 2.701 0.22705 3.15 0 6.077-0.22412 2.927 0.90186 2.026 2.478 3.602 1.575 1.576 2.7 1.802 3.825 2.251 1.126 0.45099 2.926 0.22601 4.728 0.45099 1.801 0.22498 2.926-0.67602 4.502-0.22498 1.574 0.44995 5.176-0.22601 5.852 0.22498 0.67602 0.45001 3.377-0.90002 3.6008 0.67499 0.2251 1.576 1.126-0.22498 0.45117 3.376-0.67505 3.601-1.5762 6.077-1.5762 6.077-2.4758 4.727-3.376 5.853-4.502 6.078-1.124 0.22504-1.8 0.89996-3.825 0.67499-2.0261-0.22595-4.502 0-7.428-0.67499-2.926-0.67596-8.3291 0.67499-10.579-0.67596-2.251-1.35-5.4019-0.22504-6.7539-1.8-1.3501-1.576-3.6001-1.351-4.501-2.251-0.90015-0.90002-1.3501-3.375-1.3501 0.22601 0 3.602-2.0259 3.826-2.4761 5.627-0.45093 1.7999 0.67407 0.89996-1.8018 0.67493-2.4761-0.22595-3.1511 1.125-6.7522-1.575-3.6018-2.701-5.4019-2.701-7.2019-3.827-1.802-1.126-3.602 2.025-5.4021-1.575-1.801-3.602-4.2769-0.67602-4.502-3.602-0.22485-2.927 0-2.7 0.2251-4.501 0.22681-1.801 2.7009-3.376 1.5759-4.051-1.126-0.67499-0.22607-1.801-1.801-1.125-1.5759 0.67505-3.8259 0.90002-5.627 1.575-1.801 0.67602 4.051 0-4.727 0.67602-8.7781 0.67499-11.255 1.575-11.255 1.575s-0.67505-0.45001-1.801 0.44995c-1.125 0.90002-2.7012 2.251-4.2761 1.576-1.575-0.67602-2.4758-0.45105-3.8259-0.22504-1.3511 0.22504-2.25-1.125-3.8259 0-1.5762 1.124-3.376 1.575-4.052 1.124-0.677-0.45599-1.803-2.256-1.803-2.256z"/>
   <path d="m-2142.6-762.74c-0.6748 2.477-3.1509 6.077-3.1509 6.077l-4.5029 2.251s-1.5732 1.351-2.4751 1.576c-0.8999 0.224-3.1511 1.351-3.1511 1.351s-2.0249-0.45105-1.3508 1.574c0.6748 2.026 0.90088 4.503 0.6748 5.177-0.22388 0.67602-0.22388 2.027-0.22388 3.828 0 1.8-0.67505 4.05-1.801 4.5-1.125 0.45105-2.251 0.901-2.0259 2.477 0.22583 1.5759 0.22583 6.302 0.22583 6.302l2.927 4.502s0.90015-0.67499 2.7012-0.67499c1.7988 0 3.6008-1.574 3.6008-1.574s2.0271 0.448 1.8-2.026c-0.2251-2.4769 0.9021-5.402 0.67505-6.078-0.22412-0.67493 2.0271-3.6019 2.0271-4.276 0-0.67596 2.251-3.825 2.251-4.952 0-1.125 1.575-2.926 1.7998-4.275 0.2251-1.352 0.4502-4.5021 0.90015-5.402 0.45093-0.89996 0.67602-1.801 0.67602-2.701v-2.701l-1.5771-4.955z"/>
   <path d="m-1966.4-732.35c-0.67493 0.89905-1.125 10.579-1.575 11.704-0.44995 1.125-1.3511 6.978-0.89893 8.327 0.44898 1.352 1.1239 6.303 0.67493 7.879-0.45105 1.575 0.22498 6.527-0.90198 6.302-1.124-0.22601-1.573 0.22595-1.573 0.90002 0 0.67596 1.573 2.025 1.573 2.025s2.703 0.001038 3.828-0.22498c1.125-0.22504 3.376-1.351 5.177-1.351 1.8009 0 2.927-1.351 4.501-1.351 1.576 0 4.953-1.124 5.853-0.67499 0.90002 0.44898 2.25-2.701 3.826-2.025 1.5759 0.67505 4.9529-1.576 6.528-1.576 1.574 0 2.251-2.477 4.0519-2.025 1.8 0.44995 5.177-0.90002 6.7532-0.22705 1.573 0.677 4.0509-2.25 5.1759 0 1.1261 2.252 4.503 3.152 4.503 4.277s-0.22803 3.602-0.22803 3.602l2.7019-0.226s4.2752-2.701 4.9522-2.701c0.67493 0 2.251-2.25 2.251-1.124 0 1.124-1.352 3.602-1.801 4.726-0.44995 1.126 0.44898 2.477 0.44898 2.477s2.2529 1.125 1.352 3.15c-0.90112 2.026 0.22388 1.577 0 3.151-0.22607 1.576 0 0.90002 0.89795 1.8 0.9021 0.901 2.479 2.479 3.828 2.252 1.3519-0.22601 1.7999-1.575 2.926-0.90002 1.125 0.67505 3.375 0.22498 4.0499 1.126 0.67798 0.89905-4.2749 3.15 4.2781-0.67493 8.553-3.828 9.4509-4.728 10.577-6.079 1.1292-1.35 2.479-2.7 3.3771-3.601 0.901-0.89996 0.22693-0.67499 2.926-2.701 2.701-2.025 2.701-1.125 5.179-4.952 2.476-3.825 4.275-5.176 4.7269-5.852 0.45007-0.67596 1.3501-0.89996 1.5751-3.603 0.22498-2.7 2.025-5.176 2.025-6.076 0-0.89905 0.67505-2.249 0.44995-3.826-0.22498-1.5759 0.90112-3.825-0.44995-6.0759-1.3511-2.2521 0.67505-3.15-1.3511-4.053-2.0259-0.89996-3.376-0.44904-3.8259-2.025-0.45093-1.576-2.252-1.3511-2.927-5.6271-0.67505-4.276-3.376-4.728-3.376-4.728s-2.701-1.125-2.026-1.574c0.677-0.45093 0.901-3.603 0.677-4.5029-0.22595-0.90002-0.22595-2.926-0.90002-4.275-0.67505-1.352-1.126-3.151-1.801-4.728-0.67505-1.575-1.8-2.026-2.251-3.826-0.45093-1.8-1.126-2.477-1.35-2.926-0.22705-0.45001-0.6781-2.7-1.1261-0.22601-0.44995 2.476-1.3519 7.202-1.3519 7.202s-1.801 3.828-2.476 4.953c-0.67505 1.124-1.3501 4.051-2.4751 3.825-1.126-0.22504-1.803 1.127-2.7009 0.89996-0.901-0.22595-2.251 0.22607-2.926-0.44898-0.67505-0.67602-2.4761-2.476-3.377-2.702-0.90002-0.224-1.5751-2.0239-2.251-2.0239-0.677 0-1.801-1.577-1.5751-2.477 0.224-0.90002 0.4491-2.925 0.67493-3.826 0.22412-0.89996 1.576-2.927 1.576-2.927s0-1.35-1.126-1.35c-1.125 0-1.351 0-3.827-0.22601-2.475-0.22601-3.1489-0.45001-4.052-0.45001-0.89795 0 0.9021-0.45001-1.575 0.22504-2.4751 0.677-3.6011 2.477-5.177 4.053-1.573 1.575-0.224 1.124-1.573 1.575-1.353 0.45099-1.126-1.126-2.0271 1.351-0.90088 2.476 0.45117 3.15-0.22693 3.601-0.67493 0.45105-5.4-1.575-5.4-1.575s1.125-0.22607 0.22412-1.3511c-0.89917-1.126-1.8-2.7-3.1492-2.025-1.3529 0.67499-2.4789 1.126-3.377 2.251-0.90088 1.125-0.90088 2.025-1.5759 2.9249-0.67505 0.90002-2.4751 0.90002-2.701 1.801-0.22498 0.901-0.22498 3.151-0.89905 3.376-0.67493 0.22607-0.8999-0.89795-1.575-1.124-0.67505-0.22504-0.45093-2.026-0.8999-0.89996-0.45007 1.125-0.90015 0.89893-1.5751 2.7-0.677 1.801-0.901 3.377-1.576 3.602-0.67493 0.22595 0 0.44995-2.027 1.5759-2.024 1.125-2.475 1.125-5.4 2.4761-2.9249 1.351-2.25 1.351-4.2759 1.575-2.0252 0.22601-2.477 0.901-3.8272 1.126-1.3519 0.22504-2.25 0.44904-3.6019 1.8-1.35 1.351-2.475 1.8-3.375 2.026-0.90002 0.22595-1.805 1.127-1.805 1.127z"/>
   <path d="m-1953.1-821.26c-0.89893 1.352-3.825 5.402-4.95 5.628-1.126 0.224-2.2521 1.351-3.1521 1.125-0.8999-0.22601-2.926 0-3.601 2.926-0.67493 2.926-1.801 4.5021-2.4779 4.276-0.67505-0.22498 1.125 4.276-2.7001 2.477-3.8251-1.801-2.475 1.576-2.926 2.477-0.45007 0.89899 0.67493 3.376 0.90002 4.276 0.22705 0.89996 0.8999 2.476 1.801 3.825 0.8999 1.351 1.575 2.926 3.1509 2.478 1.576-0.45196 6.5261 0 6.5261 0s1.803 0.67499 2.927 0.67499c1.125 0 1.351-0.44995 2.0249-0.44995 0.67407 0 2.025-2.252 1.801-2.476-0.22498-0.22699-0.89893-0.901 0.44995-2.252 1.3511-1.351 2.926-1.8 3.1521-3.376 0.22498-1.575-0.44995-1.575 0.22498-2.477 0.67493-0.89996 2.25-0.67297 1.801-1.575-0.45105-0.90002 0.44898-0.67505-0.45105-2.477-0.89893-1.7999-2.026-2.476-1.126-4.7269 0.901-2.25 1.803-2.701 1.577-4.051-0.22595-1.352 1.125-1.801-0.45105-3.377-1.574-1.574-2.25-2.025-3.376-2.477l-1.125-0.448z"/>
   <path d="m-1909-798.75c0.9021-0.22498 4.052-2.476 4.2781 1.576 0.22498 4.051 0.448 2.925 1.801 5.176 1.3498 2.251 2.2479 2.928 3.824 1.802 1.575-1.127 3.376-1.127 3.8259-3.151 0.45105-2.026 0.45105-2.026 1.801-2.026 1.353 0 1.801-0.22498 2.479 0.677 0.67407 0.89801 1.1221-0.002014 4.05 1.574 2.926 1.576 5.4009 1.124 7.204 2.701 1.8009 1.575 2.701 1.352 5.1759 2.251 2.4761 0.90002 1.3501-0.45001 3.6011 2.026 2.252 2.475 1.353 3.15 2.4761 4.276 1.125 1.125 2.0269-0.901 1.5759 1.8-0.45093 2.701-3.6011 0 1.126 3.825 4.7261 3.828 5.4021 4.504 6.9761 5.628 1.5769 1.126 2.7019 2.477 1.353 2.477-1.353 0-5.6282 0-6.0772-0.67596-0.45093-0.67499-2.476-1.126-3.8279-2.701-1.3491-1.574-4.275-2.701-4.949-4.051-0.677-1.352-1.5772-1.801-2.7022-1.801s-2.25 1.35-3.8269 2.926c-1.576 1.575-0.89795-0.89899-2.926-0.22498-2.027 0.67596-4.275-0.22601-5.402-1.126-1.1261-0.89996-0.89905-2.25-2.6991-1.575-1.803 0.67505-2.9259 0.22504-2.251-1.125 0.67505-1.352 0.22412-3.152 0.22412-3.152s0.677-2.251-0.89807-2.7c-1.576-0.44898-1.576-2.025-3.152-2.477-1.577-0.44898-4.051-1.575-4.051-1.575s-0.22498 0-0.901-0.22498c-0.67493-0.22601-0.67493-0.22601-2.476-0.67499-1.8-0.45105-3.1521-0.002014-4.051-1.126-0.9021-1.125-0.45105-2.701-0.45105-2.701s3.601 0.45001 0-2.251l-3.601-2.7s0.448-0.22601 0.224-0.67602c-0.22693-0.45196 2.247 0 2.247 0z"/>
   <path d="m-2010.3-817.43s1.125 1.127 2.9259 0.901c1.8-0.22601 3.149 3.601 4.277 4.951 1.124 1.351 1.801 2.026 4.2761 3.602 2.4748 1.575 2.25-1.3511 5.627 3.376 3.376 4.726 1.8 1.801 3.376 4.726 1.575 2.929 2.4761 4.503 3.376 5.18 0.89893 0.67499 1.5759 2.474 1.802 3.15 0.224 0.67499 1.7991 2.7 1.7991 3.376 0 0.67499 0.45093 2.476-0.89905 4.051-1.351 1.576-2.4769 1.801-2.4769 1.801s-2.7012-1.351-3.6011-2.701c-0.901-1.35-2.025-2.476-3.602-5.176-1.575-2.702-3.376-5.628-4.2759-6.978-0.90015-1.352-2.2511-2.703-2.926-4.052-0.67505-1.3519-2.4761-5.402-3.376-5.853-0.90015-0.45099-1.1261-1.8-2.7022-3.376-1.574-1.5759-1.3498-2.926-2.0249-3.8259-0.67505-0.90002-2.25-2.928-2.25-2.928l0.675-0.224z"/>
   <path d="m-2448.1-641.87c-1.5759-0.89996-4.9519-2.476-6.0769-3.376-1.125-0.90002-4.501-5.854-4.501-5.854l-2.4771-4.727s-2.925-3.601-2.25-4.951c0.67505-1.351 2.0261-2.251 2.0261-2.926 0-0.67499 1.3498-2.477 0.22388-3.151-1.125-0.67602-1.125-0.90002-1.801-2.926-0.67505-2.025-0.67505-3.828-1.575-4.277-0.90112-0.44898-1.5759-3.376-2.4761-3.601-0.8999-0.22607-1.801-1.801-1.801-1.801l-1.3508-18.232s-0.45117-8.327-0.90015-10.129c-0.45093-1.8 0.67505-5.626-0.45093-9.003-1.125-3.376 0.22607-7.427-0.44995-8.778-0.67505-1.3511 0.44995-5.176-0.2251-8.777s2.7009-8.103 0-9.453c-2.7009-1.352-0.67505-3.377-2.926-3.377-2.25 0-3.8259-1.126-5.8518-2.7-2.0261-1.576-5.853-4.503-6.978-5.629-1.125-1.124-4.727-4.051-5.852-4.951-1.125-0.89996-2.251-4.7269-3.1511-5.853-0.8999-1.124-1.3498-4.5-2.7009-6.526-1.3511-2.025-3.1509-5.401-3.602-6.077-0.44995-0.67505-5.4019-6.527-5.4019-6.527l0.45-3.601s3.376-2.026 2.926-2.701c-0.4502-0.67596 0.22583-1.352-1.3511-2.701-1.5759-1.352-1.3511-3.828 0-4.952 1.3511-1.127 3.376-4.728 3.376-4.728l3.376-5.626s2.7022-2.928 2.7022-4.953 3.8259-3.375 1.575-5.176c-2.251-1.802-1.125-3.377-1.801-4.728-0.67602-1.35-0.2251-2.25 1.801-3.601 2.0259-1.351 5.627-6.302 5.627-6.302s2.7009-0.67602 3.376-0.67602c0.67505 0 1.801-7.204 3.8269-2.477 2.0261 4.727 2.7012 2.251 2.0261 5.627-0.67602 3.376 0.8999 2.702 1.8 1.802 0.8999-0.90204-0.45117 0.67499 1.3498-3.378 1.8-4.051 1.1262-5.401 2.2512-4.275s1.575 1.351 3.6008 2.026c2.0252 0.67499 2.7009 0.44898 3.375 1.8 0.67505 1.351 0.45093-0.45001 4.2771 0.22601 3.8259 0.67602 9.228-1.351 8.553 0.89899-0.67505 2.251-2.0261-0.22498 1.125 2.251 3.1509 2.477 3.602 2.926 5.4019 3.377 1.8 0.45001 3.3762 0.22504 6.0781 2.926 2.7009 2.7 3.376 2.926 4.051 4.275 0.67505 1.352 1.8 0.45099 2.926 1.801 1.125 1.352 2.7009 1.352 4.2759 1.352s0-1.352 2.4761 0.45001c2.477 1.8 4.2771 2.024 5.4021 5.626 1.125 3.6039 3.376 3.377 1.575 6.9789-1.8 3.602-5.4011 5.177-3.8262 4.952 1.5752-0.22601 4.5022-1.577 5.4021-1.351 0.8999 0.224 1.3501-0.67499 2.7009 0 1.3511 0.67499 1.5762-0.90002 1.3511 0.67499-0.22607 1.576-0.22607 0-0.22607 1.576 0 1.575-0.44995-1.576 2.251-0.89996 2.7012 0.67499 1.125-1.352 4.2761 1.575 3.1519 2.927 3.1519 2.027 4.2759 3.602 1.126 1.574 2.251-0.89899 2.927-0.22504 0.67602 0.67401 2.7012 0.224 4.727 0.67505 2.0261 0.44898 0.67505-1.35 3.8272 0.67499 3.1499 2.025 6.302 1.35 6.9768 3.151 0.67505 1.8 2.477 1.125 3.376 2.251 0.89917 1.126 1.3501-0.45099 2.251 1.126 0.90015 1.574 3.602 1.124 3.1511 2.699-0.45093 1.577 0.67407 0.67602 0.22388 2.926-0.44873 2.253-2.0259 5.854-3.375 6.753-1.3508 0.901-1.3498 2.026-2.251 3.151-0.8999 1.127-0.6748-1.125-1.8008 2.026-1.125 3.152-0.90015 3.602-1.8 6.527-0.90015 2.925-0.2251 0-0.90015 2.926-0.6748 2.926-0.22485 4.727-0.8999 8.104-0.67505 3.375-0.44995 3.376-0.8999 5.852-0.4502 2.476 1.125-1.124-0.90112 4.051-2.0249 5.178-2.25 4.9509-2.925 7.203-0.67602 2.252 0.2251 0.44995-2.251 1.801-2.4761 1.352-1.125 0.89996-4.052 1.801-2.925 0.90002-6.5269 1.802-7.6519 2.026s-5.6272 1.5751-4.2761 4.275c1.3511 2.702 1.3511 3.152 0 6.529-1.3511 3.375-3.376 4.502-3.376 6.076 0 1.575-0.90088 3.15-1.125 4.276-0.22607 1.126 2.0249-1.126-0.67505 2.251-2.7009 3.376-2.926 2.476-3.8269 4.502-0.90015 2.025 0 0.44898-0.90015 2.025-0.8999 1.575-3.1509 2.25-3.1509 2.25s0.22388 1.126-0.67602 0.67602c-0.90088-0.44904-0.67505 0.22498-4.052-0.67602-3.376-0.89996-3.8259-3.149-4.2761-1.575-0.44995 1.575 0.2251 2.477 2.2512 4.052 2.0249 1.576 5.4019 2.025 4.501 3.602-0.90015 1.5759-0.90015 1.5759-1.575 2.476-0.67602 0.901 0.8999 0.22498-0.67602 0.901-1.5752 0.67505-2.4761 3.602-3.1511 3.602-0.67505 0-1.126 1.125-2.0259 0.67493-0.90015-0.45093-3.1502-2.026-3.6011-1.126-0.44995 0.89905-1.3511-1.126-1.126 2.025 0.22607 3.151 0.67602 4.952-0.44995 5.628-1.125 0.67499-3.8272 0-3.8272 0l-0.45-1.126-1.575 0.4501s-0.67505 2.7009 0.44995 3.151c1.125 0.44995 0.8999 0.89893 2.0249 2.25 1.1262 1.351 0.45117 3.827 0.45117 3.827s0 0.67596-1.125 1.801-1.5762 2.026-1.801 2.701c-0.22607 0.67499-1.5759 3.602 0.44995 3.376 2.0249-0.22595 3.602-1.351 3.602 2.251 0 3.6011 0.8999 2.702-0.2251 5.177-1.126 2.4761-2.0259 2.701-2.251 4.951-0.22388 2.251 0.22607 2.476 0.67602 3.827s1.5759 0.67499 0.44995 1.351c-1.123 0.67499-4.499 9.77e-4 -4.499 9.77e-4z"/>
   <path d="m-2506.1-825.08l-1.575-2.25s-0.67505-1.352-1.801-1.576-3.6018-3.151-3.6018-3.151-1.125-0.90002-1.125-2.475c0-1.576-0.90112-4.051-0.22607-6.752 0.67602-2.7 0.90088-6.077 0.67602-6.978-0.22607-0.90002 1.125-1.125-0.44995-2.026-1.5762-0.90002-4.727-1.125-6.7532-1.125-2.0249 0-4.502 0.67596-4.9519 0.89996-0.44995 0.22504 2.4761-6.752 2.926-7.877 0.44995-1.125 2.4758-6.078 2.4758-6.752 0-0.67602 0.67505-0.901-0.6748-1.8-1.3501-0.901-3.6011-1.351-4.9522-0.67602-1.3498 0.67602-1.125-0.90002-2.25 1.8-1.125 2.702-2.251 5.628-3.602 6.078-1.3498 0.45099-4.0508 1.801-4.0508 1.801s-3.3762-0.22504-4.5022-0.45001c-1.125-0.22498-5.8518-2.701-6.752-4.276-0.8999-1.576-1.3498-4.953-1.3498-6.527 0-1.576 2.4748-6.302 2.25-7.428-0.2251-1.125 2.4768-5.627 2.251-6.303-0.22607-0.67499 0.44995-2.926 1.125-3.826 0.6748-0.90002 4.052-2.026 4.9519-2.926 0.8999-0.901 2.4761-2.025 4.051-2.476 1.575-0.45105 2.927-0.90002 4.052-0.90002s4.051-2.476 4.501 0c0.45093 2.475 2.477 1.575 3.602 1.8 1.125 0.22601 1.3511 1.351 3.1509-1.575 1.801-2.927 3.6011-3.827 3.6011-3.152 0 0.67602 2.926-0.224 3.376 0.45099 0.44995 0.67499 1.3511-0.45099 2.926 0.90002 1.5759 1.351 3.8259 1.576 3.6011 2.25-0.2251 0.67499 0.8999 0.67499 0.8999 1.351 0 0.67493 0.90112-1.576 0.90112 2.475 0 4.052 1.125 6.528 1.125 6.528s1.575 3.377 2.25 2.701c0.6748-0.67505 2.0249-2.475 2.0249-2.475s2.251-1.351 0.67602-6.0779c-1.5759-4.7261-0.44995-6.077-0.8999-7.653-0.45117-1.576-0.45117-2.477 2.25-4.502 2.7009-2.025 9.2278-6.527 10.804-7.427 1.575-0.90002 5.176-3.376 5.176-3.376s1.3498-0.67505 1.5759-2.476c0.22485-1.8 4.501-4.952 4.727-5.852 0.22583-0.90002 3.1519-3.15 3.1519-3.15s3.1502-1.802 2.925-2.926c-0.2251-1.125 4.052-3.15 4.727-3.15 0.67505 0 4.2769 1.124 4.2769-0.90204 0-2.025 0-2.476 2.2512-4.276 2.25-1.8 5.1758-4.502 6.302-4.502 1.125 0 4.9519-2.024 6.5269-2.475 1.5759-0.45099 6.5281-2.702 2.0261 0-4.5022 2.7-1.5762 1.125-2.4761 3.376-0.89893 2.25-1.5759 5.177 2.7009 1.8 4.2771-3.376 4.051-4.052 5.627-4.276 1.5762-0.22504 0.4502 0.67499 3.8262-0.45099 3.377-1.125 3.602-1.575 3.602-1.575s1.5759-1.351 0.6748-2.025c-0.8999-0.67596 0.90112-1.576-2.4758-0.22601-3.3762 1.351-3.1511 1.576-5.4021 0.90002-2.25-0.67499-5.627-0.45099-3.1509-2.702 2.4758-2.25 5.627-2.926 3.6008-3.826-2.0249-0.89996-7.2019 0.22601-7.877 0.45001-0.67602 0.22498-2.251-0.22498-3.602 0-1.3498 0.22498-0.8999-1.799 0-2.25 0.90112-0.45099 3.8272-1.802 7.428-2.702 3.6011-0.90002 12.38-1.125 14.405-1.125 2.0252 0 4.7261 0.45099 6.302-0.67505 1.575-1.125 4.727-2.925 5.177-3.827 0.45093-0.90002 2.251-2.25 2.251-2.25s2.0252-2.026 0.90015-2.926c-1.125-0.89996-2.251-2.926-3.1511-2.476-0.8999 0.44995-0.22388 3.152-2.0249 0.22498-1.801-2.925-1.5759-3.376-2.4761-4.051-0.8999-0.67499-1.801-0.22595-1.125-3.376 0.67505-3.151 0.44995-4.502 0.44995-4.502s0.67505-2.7 0-2.925c-0.67602-0.22601-1.125-0.90002-2.25-0.22601-1.126 0.67499-7.428 3.827-8.7778 4.502-1.3511 0.67499-3.1521-2.701-2.477-4.276 0.67602-1.577 0.22485-0.67602-0.67505-2.926-0.8999-2.251-4.501-2.702-5.852-2.702-1.3508 0-4.501-2.026-5.4019-0.67499-0.90015 1.35-5.626 5.626-6.5281 6.077-0.8999 0.45099-2.25-3.826-2.925 3.151-0.67602 6.979 2.4761 9.004-1.125 9.454-3.6011 0.44995-6.7529 2.475-6.7529 2.475s-2.925 0.22601-2.925 2.026c0 1.802-1.125 6.077-2.477 6.527-1.3498 0.45099-4.727-0.224-5.852-1.575s0.2251-6.3019 0.2251-6.3019l2.0261-2.026s-14.405-2.25-14.181-3.151c0.22607-0.90002-4.2759-2.475-4.7258-3.826-0.4502-1.351-0.67602-4.277-0.2251-5.402 0.44995-1.125 6.5269-6.527 9.678-7.652 3.1511-1.126 8.553-3.601 10.129-4.052 1.5762-0.45001 4.2761-0.22504 5.177-1.35 0.90015-1.126 1.125-3.151 1.125-3.151s-0.44995-3.152 0.4502-2.702c0.8999 0.45099 2.4758 1.126 2.7009 1.801 0.22607 0.67499 0.22607 2.251 1.801 0.44904 1.5759-1.8 3.602-2.476 5.4019-3.375 1.801-0.901 4.501-0.67505 6.0781-1.575 1.575-0.90002 4.2759-1.801 4.501-4.052 0.2251-2.25-0.67505-1.575-1.801-1.801-1.125-0.224 0.44995 0.22601-3.376 2.026-3.8269 1.8-2.7009 0.45001-5.4021 1.8-2.7009 1.351-2.927 1.576-3.1509 0.45105-0.22607-1.126 0.44995-2.926 0.44995-2.926s0.22607-0.22601-1.3501-0.67499c-1.5759-0.45001-1.5759 0.22498-1.8008-1.8-0.2251-2.026 1.125-4.952-1.125-4.052-2.2512 0.89996-4.2761-0.67505-5.852 3.826-1.5762 4.501-6.978 9.229-8.3291 8.103-1.3498-1.125-1.575-1.351-2.7009-1.351-1.126 0-2.7009-1.35-4.727-1.575-2.0259-0.22504-8.104-0.22504-9.678 0-1.5759 0.22601-3.376-0.90002-4.728 0.45099-1.3498 1.35-3.375 3.151-3.375 3.827 0 0.67499-2.0259-2.477-2.7009-2.251-0.67505 0.22504-2.477-0.89996-4.501-0.89996-2.0261 0-3.377-1.126-4.051-1.126-0.67505 0 0.67407-1.801 0-2.026-0.67505-0.224-15.307-0.67499-15.307-0.67499s-4.7258-1.8-6.5259-1.575c-1.801 0.22504-6.752 0.44904-10.58 1.125-3.8269 0.67499-9.4539 2.926-11.254 3.151-1.801 0.22601-5.852 0.22601-6.5271-0.89996-0.67602-1.125 0.2251-0.90002-0.67602-1.125-0.8999-0.224-0.22388-0.67505-2.25-2.25-2.0259-1.576 0.90112-2.926-3.1509-2.926-4.051 0-6.5271-0.22601-10.128 0-3.602 0.22498-11.029 2.025-11.929 1.8-0.8999-0.22498-8.103 1.126-9.229 0.45099-1.125-0.67596-6.7529 2.475-7.877 2.25-1.125-0.22498-5.4019 0.22601-6.5269 0.901-1.1262 0.67602-6.5281 2.025-4.727 3.151 1.8 1.125 1.575 2.25 1.8 2.926 0.22583 0.67499-1.8 2.25-1.8 2.25s-0.45117 0-2.926-0.90002c-2.4761-0.901-5.177-1.35-6.303-0.67499-1.125 0.67499-3.1511 2.027-2.7012 2.927 0.45117 0.90002 3.6011 2.926 4.052 2.25 0.4502-0.67499 1.5762-2.025 2.926-1.8 1.3511 0.22601 3.3772-0.90002 1.5762 1.351-1.801 2.25-3.3772 3.376-4.5022 3.602-1.125 0.224-3.8259 0.44898-6.302 0.67499-2.4768 0.22601-2.252-0.89996-4.502 1.351-2.25 2.25-3.1509 0.90002-3.6008 3.376-0.4502 2.475-0.90015 2.475 0 3.151 0.8999 0.67499-1.801 0.90002 0.22485 1.575 2.0252 0.67602 4.501 1.351 4.2761 2.025-0.22607 0.67596 2.251-0.89905 0.8999 0.89996-1.3511 1.802-2.25 3.376 0.44995 1.576 2.7012-1.8 4.2761-0.45105 6.5271-1.576s4.502-1.35 5.852-2.25c1.3508-0.901 2.0259-2.25 4.052-2.927 2.0259-0.67499 0.6748 0.22601 0.8999 1.351s0 1.35 1.3511 0.44904c1.3498-0.90002 1.3498-0.224 3.1509-1.35 1.8-1.125 3.8262-2.251 5.177-1.576 1.3501 0.67602 1.8 0.67602 2.7012 0.67602 0.8999 0-1.125-0.22601 0.8999 0 2.0259 0.224-0.8999-0.67602 5.852 0.89996 6.7529 1.575 8.554 0.45001 9.0029 2.926 0.45093 2.476 1.3511-0.22601 2.4761 1.35 1.125 1.575 1.801 0.22601 2.4758 2.926 0.67505 2.702 0 10.129-0.44995 11.029-0.44995 0.89996-0.67505 0.89996-0.44995 2.926 0.2251 2.025 2.926 11.705 2.0261 12.379-0.90015 0.67401-2.926 0.89996-2.926 0.89996l-1.125 4.051s-1.8 3.376-3.376 5.177c-1.5762 1.8-3.6011 4.052-4.727 5.626-1.125 1.576-2.0261 4.278-3.6011 5.853s-2.926 0.90002-2.4761 4.276c0.4502 3.376 0 6.977 0.4502 9.454 0.45093 2.476 1.5759 5.852 2.4758 7.203 0.90015 1.35 1.5762 1.35 3.1511 2.475 1.5759 1.125 3.602 2.477 3.376 3.602-0.2251 1.125 0.22485 8.104 0.22485 8.104s1.3511 2.25 1.5752 4.726c0.22583 2.477 1.801 4.952 1.801 4.952l1.3508 2.927s0.67505 0.22601 1.5762 2.025c0.8999 1.801 0.8999 1.801 1.125 2.7 0.22583 0.90204 0.22583 0.67602 0.22583 0.90204 0 0.224-0.22583-3.827-0.67602-4.953-0.44995-1.125-0.44995-2.475-0.8999-3.826s0.2251-2.927-1.125-4.952-1.3501-2.251-2.0249-4.277c-0.67505-2.025-1.5762-4.276-0.67505-4.727 0.8999-0.44898 1.575-3.375 3.376 0 1.8 3.376 2.0259 2.477 2.251 5.178 0.22388 2.701 0.8999 3.602 1.575 4.726 0.67505 1.125 2.25 4.953 3.1511 6.527 0.8999 1.576 0-0.90002 2.0249 2.251 2.0261 3.151 2.252 3.826 3.377 6.302s1.801 2.476 2.4761 4.276c0.67505 1.802 0.22485 1.351-0.22607 3.376-0.44995 2.025 0.44995 4.277 0.44995 4.277s3.1511 1.125 3.376 1.8c0.2251 0.67505 3.3762 1.8 3.8272 2.701 0.44995 0.901 3.376 2.025 3.376 2.025s2.4761 1.576 3.375 2.026c0.90088 0.45001 3.603 0.901 3.603 0.901s1.8 0.45099 2.4748 0.67499c0.67505 0.22504 2.7012 0.22504 2.7012 0.22504s1.801-1.35 2.4758-0.90002c0.67505 0.44904 2.2512-0.901 2.926 0.224 0.67505 1.126 2.0261 1.126 2.7012 2.027 0.6748 0.89996 1.3498 0.89996 2.4758 2.025s2.251 0.90002 3.376 1.8c1.125 0.90002 2.0252 0.90002 3.3762 0.90002 1.3498 0 1.3498 0 2.251 0.22601 0.89893 0.22498 1.3498-0.67602 2.25 0.45099 0.8999 1.125 1.575 1.8 2.25 2.925 0.6748 1.125 2.251 1.125 2.4758 2.926 0.2251 1.8 0.67505 1.577 0.67505 3.151 0 1.576 0.90015 2.251 1.5759 2.702 0.67407 0.44904 3.1502 2.699 3.1502 2.699l3.376 0.676 2.7009 2.026 2.929 0.897z"/>
   <path d="m-2434-1034.2l13.505-1.688s4.7261 0 7.0901-1.688c2.363-1.6881 0-1.6881 7.0898-3.0381 7.0901-1.351 5.0652-2.026 8.779-1.351 3.7131 0.67602 4.7261 0.67602 8.7781 1.351 4.051 0.67505 5.064-0.33691 8.7771 0.67505 3.7139 1.0129 5.4019 0.67493 8.4409 0.67493h9.4529c4.727 0 9.1162-2.7009 10.804-1.0129 1.688 1.688 2.7009 1.0129 8.4409 1.688 5.739 0.67505 8.103-0.67602 10.466 0 2.364 0.67505 6.416-0.33704 11.142 0 4.7261 0.33704 7.0901-0.33704 8.7781-0.33704s3.375-2.364 5.739-0.33801 5.4019-0.67493 5.739 2.026c0.33789 2.701 4.727 0.67505 0.33789 2.701-4.3889 2.026-3.7139 1.688-6.7529 4.389-3.0381 2.7009 2.0261 5.064-4.3889 7.428-6.415 2.363-7.428-1.351-9.1162 2.701-1.688 4.051 0 5.064-0.33691 7.09-0.33789 2.025-1.0129 2.363-3.0391 4.051-2.0249 1.688-2.0249 0-6.752 1.013-4.727 1.013-8.103 2.026-10.128 2.026-2.0259 0-6.415 1.688-7.7661 2.363-1.3508 0.67596 2.364 1.688-4.7268 3.714-7.0901 2.026-8.779 1.689-10.804 4.389-2.0261 2.702-1.3511 3.04-2.7012 4.728-1.3511 1.688-5.4019 8.441-7.428 6.753-2.0249-1.688-3.0391-1.351-4.727-3.039-1.688-1.688-2.7009-4.051-3.7139-5.402-1.0129-1.351-1.3511-4.727-1.688-6.753-0.33716-2.026-3.3772-6.752 0-6.077 3.376 0.67499 5.4019 0.33801 6.4148-0.33704 1.0132-0.67596 2.0261-3.039 2.0261-3.039s-0.33691-3.714-1.3511-5.74c-1.0129-2.026-0.33691-3.714-2.0249-5.739-1.688-2.026-1.688-1.688-4.052-3.714-2.363-2.0259-1.688-3.039-5.4021-3.376-3.7139-0.33691-4.7268-1.351-6.0779-1.0129-1.3501 0.33704-5.739-2.364-1.0129-2.701 4.7268-0.33801 9.116 0.33704 9.116 0.33704s6.0769-2.701 4.052-3.038c-2.0252-0.33801 3.0378-3.3771-1.688-2.364-4.727 1.0129-10.128 2.364-11.479 2.7009-1.3501 0.33704-4.727 0.67505-8.103 1.6881-3.375 1.0129-7.428 0.6759-9.4531 3.0389-2.0259 2.363 0 2.701-2.0259 2.363-2.0252-0.33704 1.688-2.363-3.0381 0-4.727 2.364-3.376 2.026-5.739 1.351-2.364-0.67493-4.052-1.688-4.052-1.688s3.04-0.33801-1.3498-0.67505c-4.3892-0.33691-4.3892-0.33691-6.0772-2.3639-1.688-2.026-0.67505-2.026 0.33716-2.701 1.0139-0.67602 1.689-2.027 1.689-2.027z"/>
   <path d="m-2441.4-1019c-1.688 1.688-5.74 4.052-4.7261 5.065 1.0129 1.013 1.688 4.727 3.7139 3.714 2.0252-1.013-0.33789-4.389 7.4272-1.688 7.7659 2.701 7.0898-0.33704 8.7778 3.714s3.0381 7.089 2.0252 8.103c-1.0122 1.013-1.3501 2.026-4.727 3.039-3.376 1.013-4.727 2.364-2.363 4.051 2.363 1.688 6.7529 3.376 8.7781 4.39 2.0259 1.012 8.103 1.351 5.064-2.025-3.0391-3.376 0.67505-4.39 0.67505-4.39s5.74 4.39 3.7148-0.67499c-2.0259-5.064-3.377-5.064-2.0259-5.064 1.3508 0 4.051 1.688 4.051 1.688l1.3508-2.7011-1.3508-4.389-4.3892-4.389s3.7131-3.376-1.3508-4.051c-5.0642-0.67499-4.727-0.67499-7.4282-2.364-2.7009-1.688-3.0378-2.363-8.1028-1.35-5.0642 1.013-6.7522 1.688-6.7522 1.688l-2.3618-2.366z"/>
   <path d="m-2516.7-1014.9c2.0259-2.026 7.428-6.752 9.4541-5.402 2.0249 1.35 5.063-1.013 7.4268 1.013 2.363 2.026 5.0642 4.389 7.0901 5.064 2.0261 0.67499 4.3889-1.688 6.415-0.67499 2.0249 1.013 9.115-5.064 7.7649-0.33704-1.3508 4.727 1.688 6.077-2.0259 6.415-3.7141 0.33795-7.7651 3.0389-9.4541 2.026-1.688-1.013-3.0388-2.026-5.74-0.67505-2.7009 1.35-1.3498 1.35-4.3889 0.67505-3.0381-0.67505-3.7129 0.67499-4.3879-0.33801-0.67602-1.012-2.7012-0.67499-2.364-3.714 0.33691-3.038 1.3498-2.701-0.67602-2.701-2.0252 0-3.7131 0.33801-5.064-0.67499-1.3501-1.013-4.05-0.67596-4.05-0.67596z"/>
  </g>
 </g>
</svg>
